<?xml version="1.0" standalone="no"?>
<!DOCTYPE svg PUBLIC "-//W3C//DTD SVG 20010904//EN"
 "http://www.w3.org/TR/2001/REC-SVG-20010904/DTD/svg10.dtd">
<svg version="1.0" xmlns="http://www.w3.org/2000/svg"
 width="184.000000pt" height="163.000000pt" viewBox="0 0 184.000000 163.000000"
 preserveAspectRatio="xMidYMid meet">

<g transform="translate(0.000000,163.000000) scale(0.100000,-0.100000)"
fill="#000000" stroke="none">
<path d="M524 1332 c3 -6 -2 -12 -11 -14 -15 -3 -14 -5 5 -10 14 -4 20 -2 16
4 -4 6 2 8 17 3 28 -9 24 -3 -10 15 -13 6 -21 7 -17 2z"/>
<path d="M1393 1329 c15 -9 16 -13 5 -27 -12 -15 -11 -16 4 -4 20 16 13 42
-11 42 -14 -1 -14 -2 2 -11z"/>
<path d="M480 1314 c0 -20 27 -37 36 -23 4 7 3 9 -4 5 -6 -3 -15 2 -21 11 -6
10 -11 13 -11 7z"/>
<path d="M1316 1311 c-3 -4 -18 -11 -34 -14 -15 -3 -40 -17 -54 -30 -15 -14
-28 -23 -31 -21 -2 2 -23 -18 -48 -44 -42 -45 -43 -46 -4 -9 39 36 74 51 59
25 -6 -10 -3 -9 8 0 10 8 14 20 11 29 -5 13 -2 15 15 11 16 -5 19 -2 14 11 -5
14 -4 14 12 2 15 -12 17 -12 14 0 -2 8 4 13 13 13 9 -1 21 7 28 17 6 11 9 19
7 19 -3 0 -7 -4 -10 -9z"/>
<path d="M1370 1309 c0 -5 5 -7 10 -4 6 3 10 8 10 11 0 2 -4 4 -10 4 -5 0 -10
-5 -10 -11z"/>
<path d="M580 1306 c0 -2 7 -9 15 -16 9 -7 15 -8 15 -2 0 5 -7 12 -15 16 -8 3
-15 4 -15 2z"/>
<path d="M570 1287 c0 -2 19 -19 43 -37 23 -19 36 -26 28 -17 -15 19 -71 61
-71 54z"/>
<path d="M515 1270 c-6 -9 11 -50 21 -50 2 0 0 9 -6 20 -6 11 -8 25 -5 30 3 6
4 10 1 10 -3 0 -8 -4 -11 -10z"/>
<path d="M640 1261 c0 -5 5 -13 10 -16 6 -3 10 -2 10 4 0 5 -4 13 -10 16 -5 3
-10 2 -10 -4z"/>
<path d="M1340 1256 c0 -2 7 -7 16 -10 8 -3 12 -2 9 4 -6 10 -25 14 -25 6z"/>
<path d="M550 1230 c6 -11 13 -20 16 -20 2 0 0 9 -6 20 -6 11 -13 20 -16 20
-2 0 0 -9 6 -20z"/>
<path d="M678 1230 c6 -8 12 -18 12 -23 0 -4 -6 -5 -12 -1 -7 4 2 -8 19 -27
18 -19 41 -35 52 -35 11 0 17 4 14 9 -3 4 -10 6 -16 4 -16 -6 -57 32 -51 47 3
7 -3 19 -13 26 -15 12 -16 12 -5 0z"/>
<path d="M555 1190 c-3 -6 1 -7 9 -4 18 7 21 14 7 14 -6 0 -13 -4 -16 -10z"/>
<path d="M565 1170 c-3 -6 1 -7 9 -4 18 7 21 14 7 14 -6 0 -13 -4 -16 -10z"/>
<path d="M1119 1143 l-24 -28 28 24 c25 23 32 31 24 31 -2 0 -14 -12 -28 -27z"/>
<path d="M575 1150 c-3 -6 1 -13 9 -16 9 -3 13 -11 9 -17 -3 -6 -1 -7 5 -3 18
11 14 26 -5 26 -15 0 -16 2 -3 10 9 6 10 10 3 10 -6 0 -15 -5 -18 -10z"/>
<path d="M1270 1130 c0 -5 -5 -9 -12 -7 -7 1 -13 -4 -14 -10 -1 -7 -2 -18 -3
-24 0 -5 -6 -7 -11 -4 -6 4 -10 3 -9 -2 3 -20 -2 -33 -13 -30 -8 1 -12 -6 -10
-17 2 -10 -1 -15 -6 -12 -15 9 -42 -27 -33 -43 6 -9 11 -10 15 -2 4 6 2 11 -4
11 -6 0 -8 5 -5 10 5 8 12 7 23 -2 12 -10 14 -10 8 0 -4 7 -1 14 7 18 9 3 18
17 21 30 4 16 11 22 19 18 7 -4 9 -4 6 0 -4 4 4 18 17 31 25 25 31 45 14 45
-5 0 -10 -4 -10 -10z"/>
<path d="M800 1065 c69 -91 67 -89 75 -74 6 8 4 10 -4 5 -8 -6 -11 -2 -9 10 2
10 -1 19 -7 19 -20 1 -36 17 -31 31 3 8 0 13 -7 11 -7 -1 -12 6 -12 15 0 10
-3 17 -7 15 -3 -1 -16 7 -29 18 -12 11 2 -11 31 -50z"/>
<path d="M1069 1093 c-13 -16 -12 -17 4 -4 9 7 17 15 17 17 0 8 -8 3 -21 -13z"/>
<path d="M610 1080 c6 -11 13 -20 16 -20 2 0 0 9 -6 20 -6 11 -13 20 -16 20
-2 0 0 -9 6 -20z"/>
<path d="M1009 1053 c-13 -16 -12 -17 4 -4 9 7 17 15 17 17 0 8 -8 3 -21 -13z"/>
<path d="M656 1008 c3 -5 10 -6 15 -3 13 9 11 12 -6 12 -8 0 -12 -4 -9 -9z"/>
<path d="M972 1007 c-7 -8 -6 -18 4 -31 8 -11 14 -15 14 -9 0 7 -5 15 -10 18
-8 5 -7 11 1 21 6 8 9 14 6 14 -2 0 -9 -6 -15 -13z"/>
<path d="M935 990 c10 -11 20 -20 23 -20 3 0 -3 9 -13 20 -10 11 -20 20 -23
20 -3 0 3 -9 13 -20z"/>
<path d="M675 991 c-3 -5 -2 -12 3 -15 5 -3 9 1 9 9 0 17 -3 19 -12 6z"/>
<path d="M895 970 c-4 -6 -11 -8 -16 -5 -5 3 -6 -1 -2 -11 5 -15 7 -15 15 0 5
9 14 13 20 10 7 -4 8 -2 4 4 -9 15 -13 15 -21 2z"/>
<path d="M696 962 c-3 -5 1 -9 9 -9 8 0 12 4 9 9 -3 4 -7 8 -9 8 -2 0 -6 -4
-9 -8z"/>
<path d="M1129 963 c-1 -5 -1 -11 0 -15 0 -5 -3 -8 -8 -8 -5 0 -19 -16 -31
-36 -18 -27 -20 -38 -11 -47 7 -7 12 -7 11 -2 -4 21 0 36 9 31 5 -3 15 2 22
11 10 12 10 14 2 9 -16 -9 -17 6 -1 22 11 11 20 42 12 42 -2 0 -5 -3 -5 -7z"/>
<path d="M704 932 c4 -3 14 -7 22 -8 9 -1 13 0 10 4 -4 3 -14 7 -22 8 -9 1
-13 0 -10 -4z"/>
<path d="M866 922 c-3 -5 1 -9 9 -9 8 0 12 4 9 9 -3 4 -7 8 -9 8 -2 0 -6 -4
-9 -8z"/>
<path d="M724 902 c4 -3 14 -7 22 -8 9 -1 13 0 10 4 -4 3 -14 7 -22 8 -9 1
-13 0 -10 -4z"/>
<path d="M819 863 c-13 -16 -12 -17 4 -4 9 7 17 15 17 17 0 8 -8 3 -21 -13z"/>
<path d="M1020 863 c6 -14 16 -20 25 -17 18 7 20 17 3 11 -7 -2 -19 3 -26 12
-11 14 -12 13 -2 -6z"/>
<path d="M765 849 c10 -10 22 -16 27 -13 12 8 -6 27 -28 30 -14 2 -14 0 1 -17z"/>
<path d="M1045 831 c-3 -5 -2 -12 3 -15 5 -3 9 1 9 9 0 17 -3 19 -12 6z"/>
<path d="M1074 822 c3 -6 1 -14 -5 -18 -9 -5 -6 -11 7 -21 10 -8 18 -17 16
-21 -2 -3 1 -7 8 -8 7 -2 7 -1 0 3 -7 3 -7 10 1 20 7 8 8 13 3 12 -26 -5 -36
1 -25 15 9 11 9 16 0 22 -7 4 -9 3 -5 -4z"/>
<path d="M745 770 c-3 -5 -3 -10 1 -10 4 0 -1 -7 -12 -15 -18 -14 -18 -15 6
-11 14 3 27 5 29 5 2 1 -2 7 -8 15 -9 11 -9 15 1 19 9 4 9 6 1 6 -6 1 -15 -3
-18 -9z"/>
<path d="M927 762 c12 -11 19 -22 16 -26 -4 -3 -1 -6 5 -6 6 0 9 -7 5 -17 -4
-11 -3 -14 5 -9 11 6 13 3 12 -19 -1 -10 31 -65 37 -65 3 0 3 3 0 7 -4 3 -2
12 4 20 9 9 8 13 0 13 -6 0 -11 7 -11 15 0 8 -5 15 -11 15 -5 0 -7 5 -4 10 3
6 1 10 -5 10 -6 0 -9 3 -6 8 6 10 -15 35 -44 50 l-25 13 22 -19z"/>
<path d="M1130 715 c-9 -11 -6 -20 16 -42 16 -15 29 -31 29 -35 0 -3 3 -9 8
-12 4 -3 5 -3 2 1 -3 3 0 12 7 20 6 8 7 13 2 12 -16 -4 -44 13 -38 23 3 5 13
4 22 -4 15 -12 16 -11 3 4 -7 10 -17 15 -22 12 -5 -3 -9 -1 -9 5 0 5 5 11 12
13 8 3 6 7 -4 11 -9 3 -22 0 -28 -8z"/>
<path d="M890 706 c14 -18 13 -19 -3 -13 -13 5 -11 -2 10 -23 29 -31 39 -38
28 -19 -4 6 0 9 10 7 11 -2 19 4 20 14 3 16 1 16 -21 1 -15 -10 -24 -11 -25
-4 -1 6 -2 15 -3 21 0 5 -8 15 -16 22 -12 11 -12 11 0 -6z"/>
<path d="M825 600 c-3 -5 -1 -10 4 -10 6 0 11 5 11 10 0 6 -2 10 -4 10 -3 0
-8 -4 -11 -10z"/>
<path d="M1010 606 c0 -2 8 -10 18 -17 15 -13 16 -12 3 4 -13 16 -21 21 -21
13z"/>
<path d="M1210 580 c12 -16 24 -30 26 -30 3 0 -4 14 -16 30 -12 17 -24 30 -26
30 -3 0 4 -13 16 -30z"/>
<path d="M784 578 l-19 -23 23 19 c21 18 27 26 19 26 -2 0 -12 -10 -23 -22z"/>
<path d="M1230 590 c0 -5 5 -10 11 -10 5 0 7 5 4 10 -3 6 -8 10 -11 10 -2 0
-4 -4 -4 -10z"/>
<path d="M1060 545 c11 -12 27 -22 35 -22 12 0 11 5 -5 22 -11 12 -27 22 -35
22 -12 0 -11 -5 5 -22z m21 -2 c13 -16 12 -17 -3 -4 -10 7 -18 15 -18 17 0 8
8 3 21 -13z"/>
<path d="M1260 551 c0 -6 4 -13 10 -16 6 -3 7 1 4 9 -7 18 -14 21 -14 7z"/>
<path d="M596 528 c3 -5 10 -6 15 -3 13 9 11 12 -6 12 -8 0 -12 -4 -9 -9z"/>
<path d="M714 498 l-29 -33 33 29 c17 17 32 31 32 33 0 8 -8 1 -36 -29z"/>
<path d="M1280 510 c0 -6 -4 -8 -10 -5 -16 10 -11 -1 7 -16 9 -8 14 -9 10 -2
-4 6 -2 13 5 15 9 3 9 6 0 12 -7 4 -12 2 -12 -4z"/>
<path d="M716 471 c-17 -17 -36 -28 -47 -26 -10 2 -25 -5 -32 -16 -8 -10 -16
-17 -19 -14 -2 3 -5 -1 -5 -9 0 -20 25 -13 43 12 8 12 19 20 23 18 4 -3 23 10
41 29 19 19 32 35 29 35 -3 0 -18 -13 -33 -29z"/>
<path d="M1150 459 c0 -3 19 -21 43 -39 36 -29 39 -30 17 -6 -14 15 -23 30
-22 33 2 2 0 8 -4 11 -4 4 -4 1 0 -5 9 -16 -6 -17 -22 -1 -7 7 -12 10 -12 7z"/>
<path d="M1304 442 c4 -3 14 -7 22 -8 9 -1 13 0 10 4 -4 3 -14 7 -22 8 -9 1
-13 0 -10 -4z"/>
<path d="M1324 412 c4 -3 14 -7 22 -8 9 -1 13 0 10 4 -4 3 -14 7 -22 8 -9 1
-13 0 -10 -4z"/>
<path d="M507 404 c-3 -3 -3 -13 0 -22 5 -11 3 -13 -6 -7 -8 4 -6 -4 4 -19 20
-31 30 -35 15 -6 -8 15 -8 20 1 20 9 0 9 3 0 14 -9 11 -9 15 1 19 7 3 8 6 2 6
-6 1 -13 -2 -17 -5z"/>
<path d="M586 368 c3 -5 10 -6 15 -3 13 9 11 12 -6 12 -8 0 -12 -4 -9 -9z"/>
<path d="M1353 353 c0 -7 4 -13 8 -13 4 0 9 6 12 13 3 8 0 14 -7 14 -7 0 -13
-6 -13 -14z"/>
<path d="M1385 341 c-3 -5 -2 -12 3 -15 5 -3 9 1 9 9 0 17 -3 19 -12 6z"/>
<path d="M476 328 c3 -4 9 -8 15 -8 5 0 9 4 9 8 0 5 -7 9 -15 9 -8 0 -12 -4
-9 -9z"/>
</g>
</svg>
