<svg width="806" height="896" viewBox="0 0 806 896" fill="none" xmlns="http://www.w3.org/2000/svg">
<path d="M805.099 20.1273C805.681 18.3631 801.809 18.7881 801.628 17.5829C801.489 16.8027 801.145 16.2321 800.446 16.8958C799.364 18.5552 797.984 20.0341 797.879 22.2932C796.988 24.2204 793.646 24.3194 794.286 27.3645C791.87 29.3092 789.43 33.3615 787.334 36.2203C786.56 37.1461 789.11 38.9277 787.562 39.5216C784.819 40.5696 784.738 42.427 782.426 44.0514C786.007 36.6046 789.908 28.4766 793.331 21.0996L797.855 12.8085C797.663 11.8595 795.864 11.9002 795.247 10.2525C795.358 10.1011 797.366 9.78089 797.198 9.26852C793.908 3.70232 786.391 10.596 781.518 10.9861C778.711 11.4577 776.121 12.8551 773.268 12.8202C771.707 13.3617 770.415 14.9919 768.499 14.0254C765.96 15.6557 762.741 15.8827 760.15 17.6528C758.741 17.0763 757.815 17.4839 756.779 18.4504C756.115 18.7532 755.224 18.0312 754.618 18.7765C753.14 20.3427 750.391 17.6528 749 19.5508C746.077 19.382 744.045 22.5552 740.808 21.5829C738.025 21.2801 736.697 24.7677 734.234 25.3558C729.85 25.1403 726.456 28.0166 722.916 29.2102C721.675 32.1505 716.4 27.5857 716.354 32.3834C713.448 29.9613 715.905 33.6585 714.304 33.1927C712.889 32.4241 711.661 31.9816 710.968 33.6468C710.293 35.1665 707.853 33.4489 707.69 35.6905C707.574 36.2436 707.387 36.6861 706.747 36.5289C704.569 35.7429 704.191 38.3746 702.421 38.5609C701.28 38.5609 700.272 38.986 699.742 40.1097C698.234 41.6468 695.958 41.443 694.042 42.3338C692.761 42.6832 690.945 41.9379 690.438 43.9001C688.406 44.0747 686.648 44.8899 684.587 45.1286C681.839 46.5958 679.708 49.7399 676.15 50.3047C674.374 52.7035 671.836 52.6977 669.513 53.9146C667.702 55.2653 666.567 57.7049 664.185 57.9087C662.252 58.0252 660.983 58.9451 660.313 60.8141C660.127 61.3264 659.591 61.3323 659.073 61.2973C657.944 61.9611 657.105 63.0033 655.574 63.1896C655.114 64.6394 653.338 64.0047 652.896 65.5127C651.23 66.0775 649.763 66.5724 648.907 68.2667C646.002 68.8199 644.517 71.7136 641.565 71.929C640.319 72.3016 640.494 74.322 638.846 74.1066C636.779 74.747 635.632 77.2798 633.286 77.8329C632.319 78.1764 632.005 79.0964 631.632 79.993C630.148 80.2841 628.145 80.0803 627.766 82.0367C625.688 86.2404 619.027 87.5446 616.622 92.3947C612.57 93.4311 611.091 98.1647 607.085 99.3641C605.6 100.278 606.02 103.137 604.186 103.935C600.937 105.996 598.136 108.383 595.633 111.282C594.759 112.79 594.945 114.98 592.576 114.986C590.852 115.638 590.864 118.665 589.047 119.603C588.209 120.464 586.189 119.905 586.159 121.588C584.547 125.489 584.366 123.329 582.718 122.939C580.459 126.031 578.986 130.63 575.755 132.301C575.01 134.549 572.075 134.491 571.901 137.175C570.171 139.865 566.759 140.936 565.752 144.132C563.638 144.243 564.034 146.304 562.655 147.201C561.147 147.486 560.739 149.035 560.128 150.246C558.398 150.904 557.304 152.097 555.778 152.918C554.247 155.09 551.406 156.307 549.88 158.56C549.682 160.144 547.545 159.667 547.103 161.151C546.847 163.428 544.978 163.632 543.778 165C538.655 167.795 535.487 173.244 531.854 177.524C531.056 178.106 529.822 178.217 529.735 179.527C528.751 180.109 527.208 180.121 527.359 181.873C527.383 182.141 526.998 182.321 526.719 182.415C523.121 183.754 521.345 187.3 519.208 190.013C519.068 190.438 518.87 191.043 518.474 191.032C516.728 190.985 516.343 192.586 514.911 192.872C512.262 193.32 512.151 196.324 509.985 197.471C506.882 198.519 506.614 202.385 504.262 203.829C502.859 204.051 503.429 205.931 502.09 206.379C500.699 207.806 498.358 208.464 498.067 210.758C497.939 212.004 497.263 212.627 496.116 212.947C495.546 213.104 496.07 214.251 495.371 214.461C491.843 215.48 492.594 219.556 488.512 220.802C487.866 223.317 484.518 223.247 484.221 226.088C483.872 227.212 482.76 227.707 482.114 228.72C481.543 229.069 481.764 230.205 480.838 230.379C479.802 230.653 480.303 232.05 479.482 232.551C474.189 233.611 473.974 240.289 470.411 243.293C469.357 244.592 466.865 244.272 467.144 246.542C467.383 248.19 465.246 247.905 464.92 249.028C464.396 250.344 462.678 250.804 462.166 252.167C462.096 253.145 460.833 253.25 460.92 254.397C460.658 255.829 458.673 255.724 458.667 257.448C457.153 259.549 453.939 259.975 453.392 263.043C453.491 265.145 451.43 265.931 451.639 268.114C451.668 268.382 451.301 268.603 450.999 268.661C448.961 268.848 448.938 271.066 447.045 271.415C446.061 271.765 446.603 273.133 445.374 273.267C444.099 273.663 443.267 274.53 443.15 275.829C442.754 279.555 438.783 280.749 438.12 284.423C436.588 285.768 434.906 287.305 433.025 288.487C432.449 289.692 431.919 290.827 430.58 291.392C428.891 293.086 426.155 296.755 430.05 297.744C430.884 297.993 431.358 298.313 431.47 298.705C432.093 301.756 435.337 296.044 435.249 294.478C436.157 292.702 439.435 292.871 438.882 289.89C438.929 288.824 441.101 289.255 441.258 288.085C441.578 287.276 441.654 286.292 442.719 286.053L445.957 281.989C446.713 281.209 444.326 279.212 445.84 278.804C448.646 277.517 453.112 273.471 453.974 270.519C454.777 269.017 456.221 267.957 457.601 266.979C458.44 266.892 457.986 265.541 458.876 265.331C459.866 265.092 460.21 264.219 460.815 263.602C461.537 262.868 461.997 261.995 461.933 260.737C461.793 259.549 464.21 260.219 463.22 258.822C462.381 257.651 463.948 257.855 464.151 257.127C464.268 254.886 468.233 256.423 468.425 253.844C467.144 250.961 470.166 252.103 469.951 249.151C470.23 247.945 473.095 249.651 473.328 248.103C473.648 247.462 473.613 246.56 474.486 246.339C474.806 245.669 473.019 244.149 474.987 244.871C478.993 241.436 481.543 234.502 486.818 231.497C488.786 230.88 488.093 228.254 489.199 226.938C490.987 226.286 492.14 224.528 493.985 223.951C495.493 221.215 497.246 218.647 499.79 216.732C508.041 205.564 519.383 196.08 528.768 186.88C528.378 189.081 525.554 189.203 525.298 191.34C524.355 192.068 522.794 192.283 523.097 194.048C519.685 196.324 517.415 199.899 515.534 203.393C514.276 206.042 509.793 206.339 508.943 209.407C507.225 212.644 503.237 213.984 502.701 218.036C502.568 218.729 502.102 219.061 501.444 219.264C485.065 239.043 465.077 257.564 450.044 279.939C444.565 285.919 436.297 310.292 428.472 306.851C425.107 301.517 420.222 292.609 416.408 287.462C414.824 286.28 408.49 268.382 408.169 280.102C405.345 280.551 404.67 279.532 402.58 277.855C397.264 275.846 395.575 282.391 392.74 285.529C381.27 300.201 374.656 317.61 363.244 331.497C360.001 325.511 365.945 327.037 365.439 325.313C364.635 322.81 361.328 322.076 360.781 319.671C360.612 315.881 358.062 317.884 357.247 313.494C355.785 312.679 354.062 308.463 352.81 307.147C350.638 306.938 350.359 304.918 348.967 303.206C347.477 301.046 346.877 298.105 344.863 296.428C344.449 295.025 345.078 293.063 343.477 292.359C343.36 290.327 341.078 289.482 340.327 287.712C339.32 286.245 340.094 283.788 338.138 282.921C333.317 281.092 334.027 274.833 329.544 272.568C328.245 268.388 326.208 270.845 326.539 267.549C326.778 265.692 325.363 263.777 323.477 264.516C325.142 261.25 322.173 264.353 322.225 262.763C322.65 261.226 322.836 259.928 321.084 259.654C319.43 259.334 320.601 256.662 318.359 257.028C317.794 257.052 317.323 256.976 317.334 256.336C317.59 254.146 315.285 254.269 314.534 252.819C314.173 250.74 311.803 250.251 310.65 248.766C309.439 246.723 309.299 242.985 306.842 242.339C306.295 240.44 305.09 238.921 304.473 237.005C301.043 233.558 296.554 230.152 294.208 225.692C289.544 219.596 285.579 212.231 279.995 206.874C279.454 204.551 278.202 202.059 276.758 200.254C275.401 199.573 275.943 197.704 274.266 197.378C273.148 194.874 271.384 192.86 269.591 190.682C267.937 189.559 265.946 188.161 265.247 186.362C265.666 184.062 263.506 183.794 262.511 182.56C260.141 179.835 258.126 175.119 254.429 172.854C252.729 169.046 248.566 167.038 246.819 163.172C246.103 161.716 243.658 162.572 243.588 160.354C241.399 156.132 237.41 153.128 235.343 148.773L233.777 148.913C233.474 146.013 230.185 145.937 229.457 143.073C229.137 142.211 227.635 142.426 227.21 141.774C226.709 139.079 224.217 137.908 222.429 136.191C221.591 135.638 220.205 135.667 220.199 134.269L218.575 134.514C220.252 131.44 216.188 131.102 215.239 128.884C213.544 125.868 210.668 123.987 208.229 121.885C203.402 115.411 196.479 111.44 190.395 106.141C189.492 105.996 189.271 105.338 189.021 104.581C188.753 103.277 186.785 104.243 186.529 102.997C183.419 97.1865 176.048 94.8692 172.863 89.0293C164.357 80.4704 154.709 74.0309 146.942 65.7747C140.753 60.5754 132.072 58.2813 126.762 51.5623C117.51 41.705 105.289 36.1446 94.1798 29.1752C75.7869 18.3864 56.1771 8.45921 36.2063 3.02692C35.9443 3.14919 27.7173 -0.612066 27.5601 0.0866197C27.269 1.2511 27.5077 3.65574 28.6489 4.05166C40.282 8.8726 51.8627 12.5989 63.0126 16.2961C63.6938 16.4825 63.8801 17.5945 64.8001 17.4024C65.2775 17.3034 65.6967 17.3791 65.9937 17.8041C67.129 18.6775 67.6414 20.6804 69.3241 20.4184C71.193 22.5203 74.8087 21.5479 76.276 24.5057C76.7883 25.3499 77.586 25.6469 78.5584 25.6411C83.6762 24.7968 85.7956 30.7706 90.698 30.8288C91.7868 30.7997 91.7985 32.8666 93.1201 32.4824C96.0954 31.4751 95.6179 38.6017 99.3443 35.7138C98.9833 39.3877 100.654 35.3179 101.132 36.855C101.295 38.427 101.568 39.6788 103.298 39.2771C104.963 38.9685 104.736 41.8797 106.71 40.756C107.234 40.5405 107.688 40.459 107.886 41.0704C108.311 43.3586 110.692 42.2174 111.717 43.6264C112.276 44.5813 113.12 45.1926 114.331 45.0587C115.391 44.9423 115.472 46.4095 116.613 46.0893C116.951 47.4866 118.069 47.9583 118.89 48.785C119.752 50.2348 120.305 51.3061 122.174 51.3993C123.81 55.638 127.542 56.6045 130.983 58.8054C132.829 61.2799 136.06 61.5652 137.481 64.3599C138.156 65.7398 139.821 65.9494 140.928 66.7413C144.497 66.8985 144.002 71.9989 147.839 71.603C148.369 71.603 148.532 72.1037 148.637 72.5928C149.621 73.437 150.738 73.862 151.344 75.2478C152.776 75.2012 152.736 77.0935 154.226 77.0236C154.471 76.9945 154.593 77.4428 154.721 77.7106C155.216 79.1313 156.543 79.5913 157.743 80.0279C159.647 82.4675 161.865 84.6509 163.821 86.6946C165.446 86.5723 165.079 88.5403 166.098 89.1283C168.852 89.9085 169.242 93.5766 172.171 93.7164C172.415 96.2782 174.063 97.1632 176.444 97.5358C179.169 100.453 181.853 104.424 185.842 106.211C187.181 109.955 191.775 110.98 193.137 114.741C194.15 116.173 196.788 115.428 197.69 117.198C200.124 120.296 202.383 124.156 206.109 125.681C208.514 125.512 207.856 128.325 209.096 129.134C212.636 129.186 212.409 133.239 214.534 134.357C215.6 134.461 216.089 135.212 216.63 135.888C216.805 137.565 213.62 135.451 213.859 134.176L212.246 133.413C211.594 130.188 207.349 130.939 206.243 128.022C205.184 127.9 205.178 126.659 204.502 126.112C203.862 125.268 202.249 125.466 201.952 124.511C201.777 122.659 199.716 123.387 199.064 122.054C198.645 120.185 196.718 120.511 195.792 119.329C194.616 115.183 190.156 115.108 188.165 111.894C186.203 109.297 183.664 107.655 181.353 105.344C180.689 103.923 178.866 104.377 178.284 103.061C177.766 101.134 175.443 101.629 174.226 100.593C173.166 99.0497 172.118 97.4252 170.657 96.2316C166.622 92.5111 160.893 88.8838 157.108 85.5243C156.246 82.8576 155.536 83.9697 154.098 82.6189C152.578 79.1138 148.887 77.3496 146.063 75.3467C143.513 74.0658 143.391 69.6233 140.404 68.7325C137.236 67.0499 135.938 63.1197 131.95 62.6772C131.263 62.5783 130.925 62.1299 130.709 61.4953C130.308 60.1329 128.474 60.9072 127.856 59.6321C126.255 58.3978 125.295 56.0921 122.931 56.1329C121.667 56.1736 120.939 55.5914 120.445 54.491C118.972 54.2581 118.645 53.7224 117.889 52.325C115.921 51.2188 113.359 51.5798 112.299 49.0529C109.941 47.7079 108.235 45.0936 105.341 44.7268C104.165 44.5755 103.455 43.5798 102.325 43.1082C101.871 42.5958 100.794 43.0092 100.445 42.1242C99.9789 41.1577 98.6747 41.903 98.0226 41.1926C95.9091 36.1272 89.2541 37.2684 85.5452 34.3572C83.0358 31.2189 83.2454 32.3426 79.9732 31.3062C79.554 30.9161 79.4666 30.0486 78.6981 30.1709C77.2716 29.938 76.4565 28.3543 75.0009 28.133C74.0227 28.2786 73.6326 27.0675 72.5264 27.3994C71.0766 27.4635 70.6981 25.4839 69.0213 25.8565C66.6225 24.8201 65.4347 21.8158 62.3081 21.9555C60.2761 22.5144 59.0301 20.6629 56.9399 21.3616C56.6837 21.4489 56.3809 21.1462 56.2528 20.8609C55.5891 18.9162 53.4115 19.4053 52.6196 17.6353C52.3635 17.1171 51.8918 17.2044 51.4377 17.187C49.953 16.6164 49.4173 14.2816 47.3795 14.8405C43.5251 14.858 40.7303 11.9585 37.0448 11.4985C33.6387 8.98322 27.6707 3.44613 23.4146 5.08222C22.2152 3.94686 20.9226 1.80422 19.0594 4.06913C18.6053 2.68922 17.6679 4.06913 17.1963 4.70377C16.5209 4.33696 16.1424 4.68048 16.2647 5.39663C17.2254 10.9163 21.5514 16.3485 23.3563 22.3281C24.2355 23.5217 24.975 29.2102 27.5252 28.1796C29.1554 30.0894 27.7814 31.6963 29.237 33.9845C26.4364 33.2393 27.333 29.5188 24.6373 28.7095C22.221 26.5901 20.0085 23.0443 17.6562 21.2859L11.6534 14.2467C10.2036 13.6004 9.56895 17.6993 10.2909 18.2175C17.7727 27.4809 25.0856 35.8128 33.3359 43.8477C34.6984 47.0092 34.5644 51.6147 37.9589 53.7748C39.1234 54.2231 37.4873 56.1911 39.2049 55.9582C40.6372 55.7253 39.8046 57.1809 40.3868 57.6875C42.3664 58.881 39.3854 62.0135 41.6794 63.405C44.7594 63.5098 42.7798 66.0484 45.493 67.1255C46.4829 67.9349 43.8162 69.9436 45.1612 70.8693C46.0986 71.405 46.0695 72.5753 46.7856 73.0527C47.5716 73.0585 48.6837 72.8315 47.5425 74.0076C49.0039 78.782 53.4057 83.5272 55.1349 88.8605C55.7172 92.1152 56.8642 93.8852 59.4144 95.9056C60.0665 98.5082 60.0024 101.839 62.279 103.626C70.7156 116.808 75.9208 133.041 85.0736 145.809C86.2148 148.191 86.9018 151.137 87.5889 153.92C87.7694 154.741 89.0969 155.253 89.2599 156.121C89.126 157.763 90.6398 158.077 91.222 159.218C92.0081 165.064 98.337 168.872 100.602 174.281C104.305 181.931 110.995 190.537 115.647 199.294C118.418 205.099 121.953 210.653 124.468 216.714C126.937 216.429 125.772 219.736 128.171 220.441C129.283 222.368 129.597 224.627 131.775 225.687C132.363 229.96 136.642 232.964 139.024 235.561C138.931 236.58 138.785 238.251 140.206 239.09C143.158 242.694 144.567 247.276 148.054 250.536C150.546 255.427 153.749 259.689 156.276 264.411C156.631 266.519 159.606 267.287 159.687 269.809C161.51 274.216 164.328 278.251 166.989 282.012C166.965 284.068 169.411 284.429 170.337 285.849C170.791 286.647 170.546 287.823 171.472 288.364C173.131 293.82 178.878 299.27 182.173 303.625C182.616 304.591 182.523 305.89 183.821 306.303C184.235 307.462 183.978 309.046 185.766 309.331C186.04 309.372 186.15 309.814 186.197 310.123C186.948 314.664 191.099 317.383 193.364 320.76C193.603 324.178 194.744 327.124 196.898 329.616C198.465 332.271 198.866 335.526 201.929 337.179C203.157 337.703 202.133 339.502 203.251 340.021C205.911 341.546 205.09 345.767 208.101 347.066C209.306 347.561 209.766 348.422 209.818 349.668C209.841 350.291 211.099 350.099 211.146 350.862C211.181 351.526 211.204 352.201 211.402 352.789C212.828 354.658 215.373 355.467 215.384 358.285C215.862 360.242 217.876 360.836 217.94 363.071C218.296 364.69 220.444 365.063 221.038 366.437C221.475 367.887 223.233 368.591 223.699 370.047C223.943 371.368 225.987 371.333 225.771 372.952C225.94 378.728 234.068 380.387 235 385.884C234.662 388.213 237.632 387.898 238.237 389.581C238.458 390.14 238.179 390.984 238.936 391.234C239.763 391.508 239.349 392.795 240.415 392.888C240.694 395.164 243.431 395.933 244.456 397.668C244.619 399.723 247.361 399.525 247.326 401.703C247.937 406.413 253.667 407.275 256.025 410.297C255.838 412.393 258.08 412.981 258.086 414.978C258.109 415.578 258.592 415.717 259.006 415.939C260.164 417.173 259.757 419.531 261.899 419.95C265.434 421.126 266.057 425.08 269.259 426.728C273.55 431.333 275.075 438.902 280.869 441.959C275.669 445.773 273.934 451.601 269.503 455.915C263.407 463.874 256.857 472.224 250.051 479.56C248.712 483.473 244.275 485.248 243.541 489.336C240.339 490.733 239.064 493.12 238.26 496.439C229.964 506.384 222.098 517.702 214.569 528.119C212.514 535.164 205.527 539.431 202.418 546.081C201.422 548.334 201.533 551.082 198.802 552.113C198.168 552.433 197.556 552.916 197.521 553.551C197.376 555.979 195.763 557.626 194.628 559.524C190.849 561.05 190.767 568.019 188.223 566.797C185.859 565.836 185.044 573.184 182.843 574.791C181.213 576.974 181.574 580.194 178.715 581.393L177.644 583.833C173.719 586.051 174.15 591.35 170.616 593.952C169.463 596.316 166.948 597.812 166.569 600.689C164.112 601.684 164.433 604.235 162.814 605.894C161.551 606.855 160.578 608.089 160.2 609.679C159.07 612.485 155.548 613.679 154.721 616.91C148.712 627.245 139.705 636.572 135.449 648.06C127.775 656.269 122.942 668.636 117.458 678.091C115.367 679.448 115.204 681.573 114.11 683.576C109.988 687.401 108.218 692.974 105.86 697.818C102.354 702.72 98.174 707.163 95.6994 712.898C87.1231 729.934 74.8146 744.507 65.1436 761.101C64.4333 761.794 64.5905 763.191 63.4784 763.797C62.0519 764.927 62.541 767.226 60.672 768.036C54.7681 771.721 54.4246 780.059 50.0054 785.049C47.135 787.232 46.1044 789.905 44.7769 793.02C43.2922 794.184 42.2209 795.89 41.5629 797.666C39.0302 799.471 38.8381 803.034 37.0972 805.386C34.8556 806.865 35.6532 809.968 33.266 811.319C28.2646 815.051 28.515 822.137 25.7319 826.981C16.6839 835.465 14.6228 848.256 8.20651 858.504C5.57479 862.766 -3.72937 875.878 2.81498 876.216C4.82953 875.837 4.32298 876.769 4.87028 877.956C7.03039 875.744 7.97361 872.251 8.24727 869.083C9.16138 866.271 12.812 864.751 12.0318 861.101C13.5573 858.201 20.713 848.338 19.531 845.24C18.2035 841.753 23.0711 841.217 23.828 837.491C27.8571 832.938 29.0332 826.917 32.9051 822.207C22.8789 841.939 14.681 862.917 6.37828 883.098C13.4525 885.625 28.5033 837.584 32.5266 830.306C33.8541 829.025 33.924 827.331 34.8556 825.823C36.0957 824.07 38.4305 822.976 38.4771 820.623C40.6954 815.721 43.6939 811.209 46.2034 806.527C47.2223 799.156 53.132 793.613 55.4726 786.825C57.0971 785.27 56.7011 783.04 58.2033 781.386C60.0665 780.67 60.9631 779.221 61.7375 777.532C62.1975 777.247 62.2499 776.839 62.0053 776.356C60.3052 774.207 64.8874 775.547 62.7098 773.27C66.704 770.632 65.4522 768.571 68.4391 765.392C66.7971 769.154 64.8641 774.638 62.7797 777.957C57.3707 782.557 58.18 790.923 54.5236 796.629C51.921 799.36 51.3737 802.021 50.4246 805.41C48.544 807.704 47.5309 810.644 46.314 813.392C45.7725 816.629 43.6881 819.383 43.0593 822.562C38.5935 828.396 37.6503 835.412 36.0491 842.248C29.6736 849.922 28.3054 859.546 24.7479 868.745C19.8338 872.472 11.9212 875.837 11.7931 882.719C8.18904 883.802 11.4205 885.939 13.4932 885.799C13.4525 885.951 13.4175 886.102 13.3768 886.248C15.2283 886.44 16.8819 884.856 18.419 883.93C16.9168 886.154 12.5908 894.975 17.8833 894.387C19.9211 893.77 19.3971 894.905 20.0434 896C21.959 893.822 22.5994 890.399 22.9022 887.494C24.9459 886.579 26.7683 884.565 27.694 882.306C29.1438 880.518 32.579 881.048 32.8119 877.817C32.9225 877.299 33.464 877.106 34.0637 877.089C37.4873 875.389 40.9108 870.655 44.6372 868.786C49.6619 867.668 52.5731 863.034 57.6385 861.98C60.0082 860.297 63.8103 859.936 65.1727 856.74C67.2047 854.877 66.9136 857.619 67.7404 854.12C72.1363 851.045 72.2644 854.288 75.2338 851.296C75.1057 848.175 78.0343 849.636 78.8902 846.748C79.7054 845.578 82.0518 847.954 82.9426 846.405C83.5598 845.811 83.9091 844.862 84.9397 844.821C85.5627 844.251 84.2876 842.201 86.0983 843.406C87.0998 843.488 88.6369 842.166 89.551 841.572C94.6398 835.046 104.031 833.852 108.375 827.133C120.054 822.463 128.741 811.785 139.787 804.787C146.983 800.129 154.098 794.935 159.949 788.903C164.048 787.349 168.118 784.612 170.872 781.34C172.503 779.89 175.064 779.482 176.153 777.247C180.048 773.986 183.146 768.437 187.891 766.341C197.172 755.913 209.678 744.921 220.933 735.413C222.243 733.107 226.243 731.885 225.847 729.276C228.304 729.037 228.426 726.685 229.783 725.334C231.774 724.321 233.055 722.743 233.783 720.781C237.859 719.069 239.943 714.004 242.004 711.081C243.035 709.707 245.148 710.039 245.777 707.966C256.607 696.81 264.979 684.001 276.042 673.416C279.466 668.688 284.123 664.706 286.243 659.186C289.364 656.95 291.751 653.952 294.016 650.784C296.711 647.844 298.4 643.274 300.676 640.13C301.509 639.28 302.837 638.831 302.854 637.364C303.885 636.461 305.55 636.048 305.288 634.156C307.553 632.106 310.184 630.057 311.093 626.884C312.403 625.242 313.363 623.408 314.254 621.644C316.641 619.874 319.483 618.191 320.554 615.443C322.411 611.646 326.557 609.545 327.128 605.003C327.18 603.547 329.305 603.612 329.375 602.249C329.375 601.253 329.864 600.63 330.499 599.961C331.844 597.987 334.307 596.59 334.411 593.935C334.47 591.629 336.583 591.134 336.897 588.997C337.957 588.322 339.203 587.699 339.349 586.354C339.226 582.447 343.535 581.37 344.158 577.882C347.279 575.711 347.244 571.885 349.305 568.997C349.87 568.427 349.503 567.233 350.458 566.744C351.657 565.813 350.778 563.851 352.414 563.187C356.245 562.861 357.736 548.049 359.104 551.542C359.174 551.746 360.007 551.513 360.309 551.548C360.932 551.664 360.734 552.514 361.94 552.113C361.514 552.986 361.747 552.951 362.516 552.788C362.731 552.84 362.155 553.58 362.714 553.353C363.867 552.922 361.759 555.495 363.133 554.896C362.778 556.078 365.229 554.896 364.263 556.771C363.797 557.999 366.126 556.555 366.662 557.172C366.411 558.337 366.935 559.379 368.129 558.913C368.746 558.651 367.547 560.089 368.472 559.653C370.167 558.791 368.35 560.747 368.437 561.277C368.42 561.434 368.985 561.073 368.787 561.411C368.653 561.865 369.788 560.852 370.062 560.724C369.905 560.957 368.612 562.343 369.619 561.568C370.114 561.19 370.824 560.619 370.411 561.172C369.648 562.203 369.124 563 370.271 562.412C370.731 562.18 370.755 562.389 370.574 562.744C369.852 563.932 372.187 561.976 371.803 562.762C370.859 564.287 372.74 562.907 372.6 563.693C372.193 564.922 373.596 563.571 373.724 564.462C373.666 564.933 373.817 565.294 373.899 565.685C373.928 566.104 373.008 567.35 374.347 566.628C374.033 567.536 374.312 567.944 374.044 568.846C373.771 569.685 375.436 568.398 375.907 570.051C375.75 570.989 376.321 570.453 376.874 570.791C376.379 571.28 376.67 572.276 376.891 572.211C377.433 572.002 377.177 572.526 377.625 572.456C379.698 571.845 376.926 574.837 379.168 573.97C378.824 574.354 378.947 574.424 379.465 574.209C379.046 574.791 379.762 574.319 379.843 574.529C379.919 574.727 379.494 575.542 379.948 575.309C380.594 575.105 379.657 576.223 380.6 575.781C380.769 575.705 380.624 575.949 380.571 576.083C380.164 576.98 380.95 576.718 381.328 576.765C380.985 577.667 381.578 577.836 381.823 578.273C382.073 578.436 381.031 579.606 381.852 579.367C382.987 578.96 381.701 580.124 382.102 580.275C383.511 580.118 382.068 582.139 383.546 581.551C384.257 581.358 382.068 583.536 383.744 582.861C386.615 582.063 382.795 584.252 386.603 585.452C385.573 587.047 388.286 586.855 387.325 588.473C387.663 589.277 388.746 587.53 389.462 589.166C388.559 590.651 389.957 590.703 390.236 591.46C390.807 591.641 392.501 590.89 391.296 592.211C390.295 593.032 393.596 591.967 392.385 593.615C391.308 594.686 393.485 593.684 393.27 594.505C393.415 594.698 391.354 595.524 391.599 595.612C392.961 595.629 392.955 596.479 393.84 596.683C394.888 596.526 394.679 597.224 393.771 597.219L394.166 597.486C394.166 597.486 394.155 597.498 394.149 597.504C394.289 597.51 394.551 597.824 394.702 597.772C394.056 598.488 394.382 598.715 395.29 598.663C395.069 599.122 396.216 598.942 395.581 599.594C395.645 599.594 398.749 599.524 398.801 599.536C398.353 599.093 399.302 599.268 399.377 599.053C399.651 598.872 398.702 598.01 399.302 598.168C400.507 598.278 399.273 597.644 399.756 597.265C401.037 597.312 399.634 596.404 400.163 596.235C401.91 596.275 401.019 595.553 401.881 595.315C401.072 594.5 401.398 594.179 402.05 594.034C403.925 593.003 402.498 593.37 403.081 592.665C403.575 592.625 403.494 592.275 403.657 592.066C404.449 591.874 403.086 591.053 403.872 591.064C405.101 591.105 403.453 589.923 403.721 589.626C403.867 589.452 404.717 589.638 404.396 589.219C405.654 588.957 406.37 586.791 405.8 585.597C405.543 585.224 405.718 585.038 405.945 584.904C406.207 584.753 407.022 584.904 406.388 584.27C406.778 584.147 407.867 584.415 406.83 583.513C406.673 583.373 406.848 583.35 406.999 583.355C409.025 583.524 407.727 582.051 408.408 581.568C408.81 581.58 408.618 581.259 408.408 580.928C408.292 580.741 408.123 580.468 408.408 580.555C409.677 580.928 409.13 580.182 410.003 580.334C410.824 580.473 411.069 580.281 410.766 579.757C410.725 579.443 410.923 579.146 411.226 579.024C413.211 578.925 411.016 576.875 412.21 577.021C413.142 577.259 411.773 576.211 412.53 576.194C413.019 575.751 414.195 575.944 413.351 574.884C412.856 574.261 413.06 574.098 413.73 574.22C413.153 572.951 413.794 573.941 414.492 573.696C414.318 572.642 415.767 572.578 415.599 571.379C416.088 571.356 416.827 571.455 416.466 570.669C418.19 570.29 417.258 568.846 417.852 569.056C420.309 567.524 423.249 564.526 425.607 561.993C426.341 561.917 425.188 559.734 426.184 560.241C427.395 560.916 426.37 559.641 426.847 559.303C427.552 558.407 428.07 557.3 428.949 556.578C428.891 558.063 430.248 557.126 430.83 558.046C430.626 558.558 429.811 559.554 430.964 559.356C431.616 559.257 432.524 559.006 432.233 559.874C431.075 562.273 432.641 562.966 433.753 564.526C434.37 565.498 434.201 567.035 435.884 567.233C437.84 567.484 435.657 570.342 437.858 570.866C439.936 573.213 440.926 576.38 443.61 578.459C443.499 579.996 444.355 581.108 444.856 582.389C445.24 584.374 445.427 585.696 447.307 586.82C447.721 589.527 448.646 592.537 450.219 594.639C454.515 598.901 457.421 604.66 460.058 609.853C461.654 611.943 464.256 613.224 464.798 615.914C464.734 619.186 468.297 619.245 468.897 621.713C472.699 628.456 478.533 634.22 481.642 641.672C484.105 644.572 486.544 647.67 488.553 651.18C488.99 652.741 491.278 652.514 491.167 654.249C491.08 657.643 494.911 657.55 496.332 659.739C501.135 668.281 508.914 675.512 514.806 682.953C520.128 685.428 521.781 691.995 526.556 695.372C530.381 696.688 529.677 697.707 531.528 700.356C533.816 700.973 535.773 702.726 536.489 704.828C536.291 707.157 542.154 707.267 540.238 709.666C538.358 710.813 546.177 714.842 547.342 716.234C549.816 716.647 549.717 719.518 551.947 720.28C552.762 723.949 557.414 723.879 558.748 727.197C560.477 728.368 561.077 730.697 563.464 731.209C563.662 733.451 565.938 733.34 566.946 734.877C567.423 736.921 569.63 736.997 570.713 738.353C571.458 740.222 572.588 741.748 574.352 742.702C575.458 744.81 578.736 744.944 579.679 747.523C584.622 752.845 589.932 758.126 596.337 761.381C600.139 766.207 606.864 771.873 612.576 774.533C616.156 775.791 617.432 780.309 621.105 781.025C624.174 785.328 629.239 787.709 633.554 790.213C635.458 793.549 638.014 796.065 641.379 797.747C644.226 801.025 648.418 802.382 651.609 804.758C654.869 806.277 657.379 809.939 661.099 810.859C663.393 810.952 663.877 813.101 665.996 813.462C667.428 817.089 672.22 815.575 673.949 819.11C676.791 820.687 678.951 823.581 682.287 824.274C685.134 825.322 687.545 827.639 690.549 828.326C693.885 833.788 701 833.66 705.903 836.909C707.667 837.834 708.156 840.513 710.595 839.936C712.365 839.5 712.697 841.724 714.106 841.962C715.061 841.91 715.335 843.29 716.424 842.97C717.914 845.043 720.959 844.705 722.892 845.974C723.562 847.005 724.575 847.144 725.652 847.29C727.795 847.564 728.453 850.399 730.461 850.941C733.605 851.797 736.779 852.815 740.045 852.949C744.616 856.734 749.501 860.373 755.329 861.788C759.666 862.446 762.915 865.823 767.049 866.94C770.898 870.108 781.145 879.593 783.148 874.37C787.585 873.054 782.647 867.732 785.716 867.628C778.933 859.191 774.845 846.911 769.646 837.107C765.029 830.271 760.464 823.249 757.914 815.575C758.776 817.485 761.204 818.073 761.873 819.901C762.572 822.661 764.167 825.555 765.681 827.797C768.779 834.51 774.805 839.878 779.067 846.027C782.112 852.239 784.743 859.709 790.327 864.088C792.662 865.683 792.598 860.256 795.247 862.143C794.793 857.881 789.716 856.21 788.505 852.454C788.173 850.184 786.997 848.501 784.877 847.459C783.602 846.649 784.482 844.408 783.125 843.482C781.256 842.056 778.339 836.006 776.685 834.079C775.835 832.647 773.227 834.358 772.976 832.268C771.381 825.147 765.995 820.152 762.409 814.19C759.742 810.248 758.415 804.635 753.972 801.951C752.581 801.509 753.693 798.958 751.888 799.255C750.403 799.622 750.787 797.613 750.025 797.13C748.732 796.362 748.429 795.354 748.616 793.893C748.965 791.075 746.339 789.852 744.377 789.311C743.02 786.213 741.303 783.873 740.482 780.705C739.329 780.082 738.95 778.621 738.019 778.004C737.402 777.317 736.639 777.165 736.982 776.193C734.403 774.202 736.365 768.595 732.004 768.641C733.838 764.362 730.607 768.327 730.52 765.899C730.927 764.053 731.084 762.446 729.099 761.439C727.259 760.467 728.488 757.357 726.001 756.973C723.975 756.327 725.122 752.769 722.811 751.832C720.854 750.458 721.495 747.244 719.055 746.155C716.988 743.978 716.697 741.014 715.253 738.394C714.753 736.152 714.322 734.411 712.319 732.967C711.649 729.724 710.508 726.214 708.662 723.558C704.476 718.668 700.983 712.735 698.322 706.959C697.274 702.959 692.61 701.102 691.818 697.061C691.358 694.546 690.124 692.723 687.917 691.471C686.508 689.3 685.53 686.61 684.034 684.438C679.184 676.915 674.386 668.595 669.978 660.822C667.574 657.335 665.862 652.718 662.526 650.057C662.404 646.726 660.61 644.712 657.839 642.988C651.609 632.269 643.917 621.498 636.989 611.338C631.26 607.326 629.746 599.501 624.744 594.564C621.53 592.904 620.966 590.552 619.597 587.728C615.417 586.179 615.528 581.323 612.878 578.855C611.795 578.226 609.204 575.926 610.759 575.006C611.365 574.843 611.731 574.43 611.376 574.098C593.496 555.623 581.886 533.801 566.94 513.132C563.72 506.803 558.2 502.448 554.585 496.561C550.538 488.119 541.933 480.148 536.774 472.713C536.506 470.436 534.55 469.318 533.263 467.665C531.511 462.524 527.429 458.832 524.139 454.838C520.122 447.543 516.361 439.688 510.666 433.144C516.809 426.908 519.709 418.821 525.269 412.41C526.806 411.362 527.779 409.79 529.316 408.684C530.096 407.217 530.247 405.068 532.081 404.37C533.036 404.038 532.92 402.745 534.125 402.565C535.045 401.26 536.483 400.183 537.601 398.85C539.225 397.802 538.078 394.972 540.302 394.635C541.001 394.361 539.586 393.063 540.209 392.725C541.845 392.102 541.176 390.047 543.417 390.285C546.078 390.122 545.746 387.706 545.537 386.151C548.075 385.918 546.48 382.28 548.786 382.565C549.962 382.873 550.649 382.524 551.027 381.761C551.371 381.063 551.347 380.114 552.256 379.817C552.605 379.112 550.759 377.61 552.797 378.233C554.952 377.4 555.47 374.093 557.001 372.329C560.139 367.06 566.107 363.997 567.47 358.088C570.934 355.875 573.734 352.964 575.26 349.127C584.093 336.696 595.452 325.243 603.458 312.58C606.806 310.425 609.915 307.235 611.592 303.753C614.742 300.993 617.036 297.395 618.596 293.36L622.136 288.347C622.963 287.095 625.367 287.363 624.546 285.215C624.197 283.107 627.161 282.845 627.661 280.824C635.667 267.538 647.958 256.51 654.375 244.138C656.081 243.037 657.03 241.407 657.344 239.544C659.114 238.938 659.65 237.389 660.471 236.056C662.159 234.507 661.682 231.468 663.632 230.385L663.091 228.784C664.797 229.162 666.089 228.26 666.503 226.606C668.144 222.554 672.651 220.184 673.425 215.579C680.424 208.813 682.887 198.601 688.732 191.125C696.016 178.519 707.125 166.467 714.485 153.18C714.368 151.067 717.07 151.009 717.955 149.518C718.287 148.144 718.677 146.787 719.608 145.629C721.477 144.528 721.425 142.456 723.183 141.408C725.058 138.817 726.06 135.993 728.266 133.606C731.702 120.034 744.988 112.371 749.955 99.5562C752.796 96.4587 753.768 91.3932 757.495 89.3961C760.779 85.7688 760.883 80.0454 765.169 77.5068C767.538 77.0993 766.275 74.4385 767.725 73.3322C768.19 72.9537 769.081 72.977 769.093 72.1794C769.11 71.306 770.45 71.3235 770.234 70.2871C772.348 69.3555 772.26 66.5491 773.64 65.0644C775.538 64.3483 774.595 61.7398 776.668 61.1692C780.324 59.2479 780.842 54.6773 781.931 51.1315C783.672 50.1999 784.761 48.2901 786.531 47.2945C787.538 46.8229 786.915 45.507 788.179 45.2217C791.177 44.1795 789.867 40.3251 791.987 38.5435C793.885 36.8899 794.502 34.2174 795.724 32.2728C799.264 28.8201 804.155 25.2277 805.046 20.1214L805.099 20.1273ZM783.329 31.9525C783.119 35.2538 781.5 35.4401 780.679 37.8564C780.254 41.9437 777.023 44.884 776.231 48.5696C775.049 49.3847 775.131 50.6366 774.356 51.6671C772.057 53.2624 770.578 55.2246 769.803 57.8796C769.11 61.6758 764.255 63.0382 765.052 67.3643C764.255 71.2944 759.41 73.3846 759.265 77.5418C758.508 77.0411 757.122 79.4108 756.703 80.0338C756.4 82.485 754.351 83.4107 753.495 85.3205C751.37 89.8445 746.1 92.383 745.343 97.5766C740.732 99.9696 739.399 104.354 736.33 108.115C729.768 117.07 723.015 126.782 714.991 134.613C718.007 132.202 718.793 128.511 720.866 125.774C722.223 125.314 721.425 123.451 722.694 122.77C725.99 120.686 725.361 116.977 727.876 115.02C727.841 112.983 730.333 113.047 730.712 111.178C731.317 106.229 737.419 104.488 738.31 99.6203C738.52 98.4441 739.608 97.7047 740.138 96.5868C740.68 96.1385 740.336 95.0147 741.256 94.6945C742.164 94.3743 741.704 93.2447 742.153 92.6392C744.971 91.1196 746.403 88.6451 747.888 85.7222C747.306 80.9188 752.994 79.7892 753.535 76.1328C753.186 74.421 755.294 74.5141 755.556 73.2682C755.527 72.3948 756.866 72.3657 756.61 71.3468C758.036 70.4734 758.653 68.814 759.154 67.2245C759.276 65.7573 761.349 65.536 761.192 63.801C762.554 61.4604 765.774 60.5754 766.1 57.3847C765.856 55.2421 767.893 54.1882 767.527 51.9641C767.48 51.6904 767.835 51.4168 768.138 51.3236C770.193 50.8811 770.059 48.6104 771.958 48.0223C772.516 47.8302 772.505 47.3353 772.598 46.8753C773.396 45.443 775.841 45.181 775.626 43.0442C777.506 37.6352 780.709 32.5289 785.174 28.9656C784.895 30.1942 783.736 30.823 783.317 31.9351L783.329 31.9525ZM658.805 205.692C657.513 207.713 655.335 208.65 655.044 211.171C652.634 211.742 648.541 219.189 648.773 220.941C647.737 221.465 645.734 221.279 645.408 223.253C643.586 227.107 639.003 229.11 638.008 233.576C634.532 236.86 630.945 240.755 629.443 245.261C619.254 261.75 605.146 275.27 593.845 291.567C593.833 293.651 591.155 293.482 590.189 294.874C589.781 296.19 589.309 297.494 588.314 298.554C586.398 299.485 586.323 301.517 584.523 302.402C582.509 304.789 581.35 307.474 579.015 309.639C575.505 319.607 567.05 326.216 560.186 333.878C540.238 362.763 520.39 392.399 504.076 423.263C509.345 430.599 522.975 393.703 526.498 391.269C526.818 390.78 526.672 389.994 526.911 389.441C527.202 388.76 528.361 388.678 528.314 387.712C528.291 387.211 528.431 386.786 528.908 386.524C529.979 385.453 532.087 385.121 532.029 383.322C534.381 381.546 533.875 377.697 537.042 376.405C539.423 374.885 538.241 371.24 539.947 369.278C543.313 367.374 544.134 363.409 546.055 360.888C547.947 360.015 546.212 357.185 548.925 357.08C550.771 356.655 552.203 354.658 550.893 353.057C551.353 353.028 553.205 353.505 552.366 352.492C551.97 351.974 551.336 351.293 552.198 351.229C553.805 351.106 555.097 350.85 554.829 349.045C554.643 347.322 557.595 347.607 556.599 345.54C556.023 343.823 559.371 343.974 558.969 341.895C559.062 340.026 561.845 339.881 561.478 337.68C562.131 335.572 564.261 334.693 565.572 332.981C567.085 332.085 568.192 331.468 568.36 329.529C570.497 328.358 572.762 326.687 573.892 324.708C575.679 319.689 579.796 315.613 583.289 311.98C584.506 310.024 584.657 307.334 586.835 306.262C589.74 305.622 588.552 302.28 590.497 301.255C591.26 301.04 590.934 300.108 591.382 299.706C592.884 298.42 594.352 297.051 594.986 295.171C594.951 294.915 595.405 294.757 595.679 294.606C598.771 292.033 600.168 287.538 603.999 285.593C605.298 283.247 604.704 283.538 607.079 281.855C607.627 279.043 611.178 278.332 611.399 275.532C611.947 274.076 615.068 274.548 614.759 272.12C614.578 269.407 617.018 268.784 618.386 267.043C621.798 262.461 624.983 258.373 628.389 253.878C620.255 267.223 611.854 279.637 601.775 292.102C598.247 296.26 596.832 301.89 592.378 304.743C591.615 308.289 588.384 310.816 586.159 313.447C580.32 323.666 574.794 334.437 565.391 342.53C559.708 349.791 555.598 358.39 550.084 365.529C540.885 380.381 529.612 394.262 521.217 409.633C518.666 410.215 518.946 412.876 517.863 414.658C515.68 416.923 513.828 419.49 512.314 422.099C506.929 424.783 506.626 431.065 503.109 422.553C479.866 389.284 457.875 352.783 435.785 317.325C440.146 312.318 441.24 304.009 444.967 298.338C447.039 295.916 450.614 294.158 451.54 290.868C452.425 289.325 453.945 288.225 455.406 287.206C456.268 287.107 455.866 285.733 456.775 285.5C457.793 285.232 458.154 284.318 458.789 283.672C460.384 282.664 459.191 279.899 461.38 279.602C462.067 279.346 460.646 278.053 461.258 277.733C462.847 277.168 462.178 275.124 464.373 275.41C465.793 275.41 466.323 274.414 466.742 273.395C466.987 272.993 465.904 271.631 466.387 271.41C468.967 271.159 467.202 267.683 469.531 267.98C470.696 268.306 471.371 267.98 471.732 267.241C472.058 266.565 472.018 265.64 472.908 265.366C473.077 263.887 471.15 263.532 473.951 263.841C476.67 259.416 479.523 255.031 483.092 251.043C485.723 249.209 486.731 247.462 487.424 244.4C489.234 243.561 490.3 241.681 492.169 240.912C493.485 238.653 494.486 236.033 496.448 234.146C498.504 231.969 499.703 229.133 502.113 227.183C504.11 223.375 507.621 219.858 510.981 217.361C512.407 216.854 512.827 215.183 513.712 214.181C514.271 210.647 519.214 211.591 519.15 207.713C519.557 206.775 520.844 207.148 521.188 205.634C521.77 205.064 523.051 204.947 523.214 204.085C523.412 202.956 525.153 203.2 525.077 201.797C526.515 201 527.837 200.196 528.285 198.467C530.934 197.448 531.773 194.414 534.573 193.815C535.697 193.273 535.15 191.358 536.762 191.334C538.62 190.409 539.295 187.882 541.467 187.055C542.061 186.653 542.562 186.1 542.585 185.198C545.03 183.48 545.921 184.796 546.707 180.668C549.676 178.013 553.746 175.451 555.633 171.509C559.423 170.287 560.494 165.652 564.279 164.354C565.933 162.263 564.978 160.971 568.023 158.665C573.211 157.378 573.962 150.752 577.752 149.221C579.446 148.587 579.347 145.722 581.17 144.854C581.991 144.062 583.959 144.715 583.999 143.079C585.595 139.399 585.845 141.512 587.376 141.99C589.589 139.125 591.295 134.764 594.509 133.495C595.353 131.393 598.194 131.719 598.532 129.146C600.389 126.706 603.813 126.141 605.065 123.172C607.068 123.422 606.963 121.245 608.36 120.633C609.437 120.395 610.287 119.836 610.672 118.758C611.72 117.052 614.672 117.617 615.545 115.445C615.749 115.131 616.581 115.463 616.721 114.956C617.618 111.987 620.762 111.486 623.015 109.949C624.628 107.859 627.568 106.869 629.239 104.761C629.56 103.189 631.632 103.859 632.191 102.409C632.64 101.635 632.837 100.622 633.571 100.104C637.111 99.0147 641.618 94.9332 644.541 92.5577C646.456 91.4864 647.044 88.878 649.111 87.958C649.984 87.5039 651.213 87.5737 651.487 86.2928C652.535 85.8561 654.048 86.089 654.182 84.354C657.431 83.6611 659.556 81.1691 662.031 79.2652C663.323 79.2128 663.422 77.1109 664.505 76.9537C666.928 76.3948 669.786 76.191 671.323 74.2696C673.81 71.7718 677.879 71.9523 679.55 68.3657C679.877 67.7718 680.406 67.6204 681.064 67.6554C682.491 67.7485 682.339 65.8213 683.766 65.7223C685.478 64.7325 687.894 64.7442 688.779 62.6248C689.233 61.4662 690.048 61.047 691.23 61.0586C691.818 61.0644 691.632 59.8126 692.354 59.8068C693.402 59.7719 694.63 59.9524 695.201 58.9102C696.168 56.4007 698.671 56.5696 700.732 55.8534C701.501 54.6656 702.718 54.2755 704.098 54.1591C705.652 54.0019 706.106 51.9175 707.434 51.4983C708.837 51.2595 709.623 49.6176 711.026 49.3615C711.935 49.5128 712.022 48.3134 712.657 47.9932C713.536 47.2654 714.91 48.2843 715.783 47.8127C720.057 46.1067 722.316 41.181 727.114 40.9889C729.256 41.8098 729.355 38.8404 731.026 38.5959C731.579 38.4911 732.319 38.9394 732.668 38.2523C733.052 37.5013 734.17 38.165 734.444 37.1927C736.61 37.5013 737.827 35.0559 739.632 34.5202C741.553 34.8695 741.914 32.2087 743.911 32.7793C748.72 33.018 750.671 28.0923 755.422 27.2015C756.709 26.2582 758.636 27.085 759.731 26.0952C761.157 25.3907 763.154 26.6774 764.167 24.8143C766.409 21.775 770.426 22.9919 772.947 20.2321C776.79 19.8245 780.726 19.1782 784.61 18.3165C783.672 19.708 782.694 21.0763 782.642 22.9919C781.797 24.9191 778.461 25.0705 779.166 28.0923C776.872 29.9438 774.391 34.2116 772.412 37.0122C771.672 37.9205 774.24 39.6847 772.714 40.2844C770.269 41.6293 768.569 43.5915 767.317 46.0019C764.586 47.1489 765.78 50.59 763.358 51.9349C762.45 52.3367 762.712 53.5827 761.547 53.8563C760.761 55.2479 759.509 56.325 758.537 57.7457C757.058 58.8927 758.49 61.5652 756.342 62.0659C755.69 62.3861 757.215 63.5448 756.639 63.9232C755.09 64.6685 755.981 66.6074 753.751 66.5491C751.137 66.9101 751.76 69.2798 752.109 70.7412C749.629 71.143 751.55 74.5898 749.256 74.4559C748.068 74.2347 747.422 74.6248 747.125 75.3933C746.857 76.0978 746.974 77.0236 746.106 77.3729C746.217 78.8052 747.701 79.1313 745.198 78.9916C742.851 83.6727 740.313 88.2666 737.047 92.5577C734.624 94.5431 733.623 96.4762 733.192 99.5504C731.3 101.309 728.394 102.834 728.004 105.611C720.866 118.997 709.25 130.747 702.299 144.26C700.4 147.119 696.412 148.808 695.16 152.33C693.711 152.814 694.025 154.438 693.326 155.364C689.874 157.39 688.954 161.565 687.417 164.918L684.214 169.92C683.457 171.177 681.088 170.962 682.019 173.046C676.022 183.969 665.804 195.468 658.794 205.704L658.805 205.692ZM513.1 447.001C522.224 461.4 531.808 475.746 540.291 490.948C544.838 495.554 541.874 497.161 547.586 500.718C552.157 509.167 557.933 517.091 563.301 525.202C565.659 527.193 565.409 531.152 568.04 532.596C570.672 533.621 571.277 536.34 572.978 538.22C576.611 547.42 584.104 553.434 589.216 561.242C589.152 565.085 595.557 567.891 593.373 569.539C591.464 571.798 603.132 579.425 602.91 583.222L604.698 585.05C605.164 589.382 610.148 590.831 611.073 594.977C612.756 596.887 613.059 599.652 615.516 601.05C615.37 603.548 617.886 604.304 618.695 606.307C624.383 616.689 631.056 626.307 637.268 636.747C645.03 646.086 650.433 658.569 659.091 667.739C662.456 671.367 663.469 676.269 667.003 679.599C668.575 685.591 674.06 689.591 676.866 694.493C672.261 691.337 670.869 685.87 666.928 682.109C662.794 674.924 657.257 668.193 653.484 660.939C650.246 658.604 649.967 653.975 646.392 652.164C645.839 650.15 645.821 647.763 643.533 646.761C638.113 642.924 636.808 634.901 631.166 630.773C626.642 622.517 620.855 615.367 614.806 608.45C610.893 599.338 603.301 593.446 597.985 585.737C597.536 582.313 594.881 581.219 593.193 578.546C592.354 577.434 595.021 577.487 594.276 576.602C586.649 569.201 581.269 560.77 575.528 552.241C570.27 544.206 564.721 536.619 560.401 527.932C552.838 519.787 549.7 508.09 541.251 500.602C538.026 491.996 530.509 483.443 525.019 476.212C523.458 473.563 522.725 470.209 520.081 468.393C519.767 468.288 519.569 467.717 519.47 467.321C517.828 461.487 513.013 457.254 509.77 452.591C507.482 443.321 500.838 435.776 495.819 428.061C492.955 424.678 491.837 419.607 488.355 416.538C486.073 415.147 486.352 412.719 484.326 411.124C484.111 406.658 478.824 405.348 478.463 400.801C477.689 398.274 475.301 396.952 474.946 394.157C471.68 390.023 468.914 385.622 465.636 381.569C464.472 379.962 465.374 377.767 463.831 376.312C477.525 393.266 487.144 411.304 500.798 428.096C503.627 430.576 499.691 434.256 503.522 435.496C505.846 435.583 504.244 438.797 506.236 437.045C507.435 441.051 511.808 443.112 513.112 446.995L513.1 447.001ZM739.643 789.066C739.37 788.868 739.242 788.618 739.189 788.286C739.37 788.525 739.515 788.792 739.643 789.066ZM437.141 329.907C436.018 325.919 433.467 322.39 432.07 318.6C435.063 323.497 439.307 327.613 440.623 333.366C439.598 332.091 438.766 330.612 437.141 329.913V329.907ZM429.479 325.011C428.518 324.725 428.687 323.52 428.548 322.711C428.909 323.444 429.077 324.294 429.479 325.011ZM447.389 350.006C448.041 352.265 450.283 352.941 449.526 355.642C449.246 353.261 447.162 351.759 446.469 349.564C446.911 349.534 447.237 349.663 447.389 350.006ZM453.753 359.572C453.491 362.501 457.805 362.617 457.165 365.185C455.913 367.601 458.661 368.475 459.517 370.221C455.884 367.619 453.945 363.299 452.879 359.182C453.322 359.194 453.706 359.258 453.753 359.572ZM460.14 370.873C461.38 370.716 461.945 370.885 461.165 372.393C460.815 371.887 460.472 371.38 460.122 370.868C460.122 370.868 460.134 370.868 460.14 370.868V370.873ZM462.329 374.111C462.085 373.75 461.834 373.383 461.59 373.022C461.904 373.336 462.131 373.715 462.329 374.111ZM465.118 369.825C465.275 370.006 465.403 370.204 465.508 370.413C465.374 370.221 465.246 370.023 465.118 369.825ZM449.042 288.778C449.124 288.644 449.205 288.504 449.281 288.364C449.299 288.527 449.205 288.667 449.042 288.778ZM458.638 275.136C458.777 274.827 458.929 274.525 459.092 274.228C459.103 274.571 458.911 274.926 458.638 275.136ZM562.014 154.141C567.819 149.07 573.758 144.272 580.256 140.109C579.475 137.803 582.765 138.52 583.039 136.156C584.098 134.828 586.631 134.974 586.893 132.889C586.986 131.812 588.279 132.295 588.838 131.754C586.654 133.239 586.084 136.418 583.906 137.425L584.157 139.044C582.707 138.293 581.245 138.753 580.564 140.249C579.825 142.368 577.269 142.514 576.133 144.22C573.1 148.272 568.407 150.7 565.828 155.212C563.12 155.661 563.47 158.659 561.706 160.132C558.713 163.323 555.423 166.531 553.17 169.739C547.545 174.374 542.334 180.953 536.401 185.71C537.292 183.189 540.227 178.589 542.765 177.5C547.289 170.112 555.01 161.308 562.008 154.135L562.014 154.141ZM594.887 123.935C595.458 124.132 596.017 124.377 596.582 124.517C595.662 126.269 594.328 127.323 592.529 128.237C593.531 127.41 593.368 125.512 595.039 125.565L594.887 123.94V123.935ZM598.392 123.253C598.619 123.946 598.107 123.801 597.63 123.94C597.921 123.742 598.2 123.533 598.392 123.253ZM590.916 129.85C591.33 129.448 591.755 129.052 592.157 128.633C591.813 129.955 591.306 130.537 589.991 130.811C590.299 130.491 590.596 130.159 590.911 129.85H590.916ZM599.301 121.903C599.603 121.629 599.953 121.413 600.308 121.227C599.999 121.489 599.667 121.722 599.301 121.903ZM607.143 115.824C607.353 115.073 607.772 114.823 608.512 114.566C608.075 115.015 607.679 115.486 607.143 115.824ZM609.519 114.007C615.417 110.264 618.998 104.558 624.948 100.581C626.107 99.8531 626.153 98.0249 627.819 98.1472C629.21 97.6523 628.89 95.6086 630.887 95.8299C630.846 98.677 623.603 101.623 621.274 104.628C617.758 107.248 613.478 112.313 609.525 114.002L609.519 114.007ZM632.162 95.0497C634.439 93.4544 636.68 91.8183 638.87 90.1065C637.571 91.3292 634.066 94.9041 632.162 95.0497ZM763.585 20.331C763.329 20.3252 763.061 20.2845 762.793 20.2612C763.148 20.168 763.509 20.0749 763.864 19.9817C763.765 20.0923 763.672 20.2088 763.585 20.331ZM761.326 20.6862C761.204 20.692 761.087 20.7095 760.965 20.727L761.39 20.6163C761.39 20.6163 761.349 20.6629 761.326 20.6862ZM706.887 144.755C708.127 144.202 707.475 142.141 708.459 141.547C710.322 141.186 710.456 139.3 712.08 138.805C711.614 142.054 708.331 142.828 706.398 145.198C706.531 145.035 706.683 144.883 706.892 144.755H706.887ZM790.88 17.9031C790.397 18.5552 789.984 19.2481 789.599 19.9584C787.882 18.5086 784.348 19.3063 787.649 16.3776C787.579 12.8318 790.036 14.171 793.361 13.4956C792.545 14.9745 791.882 16.5523 790.88 17.9089V17.9031ZM758.642 21.3209L760.295 20.8958C759.678 21.0763 758.601 21.6469 757.751 21.5654L758.636 21.3209H758.642ZM755.841 22.0952L756.289 21.973C756.027 22.462 755.486 22.2932 755.003 22.3223L755.841 22.1011V22.0952ZM594.218 120.004C598.392 114.549 604.884 111.015 608.267 105.082C612.011 100.959 616.634 97.2273 619.842 93.3787C628.185 87.9056 635.417 80.7732 644.302 75.83C645.402 74.8635 652.278 70.3395 652.901 69.2682C653.519 67.2886 656.005 68.3424 657.338 67.3643C658.409 65.0819 660.878 64.6103 662.712 63.5506C664.552 61.7922 667.504 61.9262 668.843 59.2304C672.47 59.1139 673.955 55.6613 676.552 53.9786C683.195 48.7326 691.428 47.0325 699.16 44.0864C716.266 34.8346 734.374 27.7488 753.495 22.7415C750.456 25.5013 746.415 25.4315 742.764 26.9336C741.768 27.2422 740.971 27.8652 740.453 29.018C740.039 30.1592 738.17 28.4824 738.438 30.1825C737.518 33.2684 731.486 29.6876 731.306 33.4605C731.312 33.9438 731.294 34.3921 731.026 34.3455C728.79 33.3965 728.709 37.3499 726.886 36.0282C724.948 34.1301 724.523 36.855 722.857 36.8841C722.467 37.0937 722.828 38.101 722.689 38.3688C722.461 38.2349 721.932 37.74 721.821 38.0369C716.639 39.5624 711.97 45.146 705.821 46.2872C703.807 46.1009 703.888 48.6861 702.345 49.1751C699.178 49.3731 696.86 51.9233 693.338 51.9699C690.718 53.3556 688.703 56.4415 685.297 56.9364C683.818 58.194 682.747 59.7078 680.517 59.6845C677.623 60.0222 676.767 63.9989 673.798 64.0921C670.951 63.5739 670.951 67.0499 668.855 67.242C668.098 67.1488 668.086 68.1153 667.551 68.3075C666.834 68.715 665.577 68.4996 665.198 69.3031C664.727 70.3453 663.091 69.6816 662.823 71.0556C661.291 71.4516 659.725 72.0047 658.933 73.5651C656.115 73.9552 654.613 76.7325 651.743 76.7092C650.514 77.0003 650.642 78.9741 649.047 78.6539C647.009 79.207 645.88 81.5243 643.562 81.9319C642.654 82.1647 642.258 83.1138 641.891 83.9348C639.324 83.6029 638.06 84.9304 637.152 87.2011C634.136 89.3205 629.612 90.6712 627.382 94.2113C623.516 95.5155 621.164 99.4339 617.158 100.662C615.592 101.437 615.929 104.173 614.037 104.796C610.771 106.444 607.894 108.517 605.263 111.038C604.337 112.371 604.29 114.566 602.008 114.269C600.18 114.782 600.162 117.6 598.241 118.363C597.368 119.102 595.452 118.316 595.295 119.952C594.707 122.566 591.19 122.374 594.218 120.028V120.004ZM586.416 127.341L586.113 125.705C586.544 125.798 586.975 125.897 587.4 125.984C586.59 127.067 586.456 128.767 584.873 128.918C585.129 128.167 585.379 127.41 586.416 127.341ZM478.41 249.354C478.358 249.564 478.329 249.78 478.277 249.989C478.102 249.663 478.049 249.389 478.41 249.354ZM477.624 250.985C477.368 251.189 477.217 251.282 477.141 250.897C477.304 250.927 477.461 250.956 477.624 250.985ZM469.38 261.209C470.806 260.487 470.224 258.088 471.756 257.715C471.138 260.126 469.403 262.164 467.4 263.451C468.093 262.734 468.687 261.931 469.38 261.215V261.209ZM465.229 265.011C465.363 264.953 465.485 264.883 465.613 264.819C465.38 265.942 465.456 267.48 464.018 267.771C463.738 266.432 464.955 266.001 465.234 265.011H465.229ZM450.154 285.884C450.073 286.001 449.997 286.117 449.922 286.239C449.892 286.053 449.986 285.96 450.154 285.884ZM434.836 310.519C434.859 310.088 435.232 309.872 435.697 309.791C435.074 311.299 434.51 312.824 433.962 314.361C432.641 312.976 435.08 312.475 434.836 310.519ZM426.801 311.252C425.508 311.066 424.932 307.974 423.802 306.856C425.008 308.178 426.475 309.337 426.801 311.252ZM420.705 301.657C421.829 302.711 422.085 304.143 422.731 305.383C421.165 303.881 420.059 302.478 419.552 300.376C419.907 300.836 420.291 301.267 420.705 301.657ZM408.705 281.185C409.287 282.228 409.916 283.252 410.516 284.283C409.34 283.474 408.326 282.641 407.43 284.51C406.399 283.503 408.181 281.977 408.705 281.185ZM359.913 347.683C360.833 348.917 358.859 349.401 358.702 350.32C358.283 353.406 353.753 352.999 353.41 356.422C354.621 359.432 351.046 360.108 351.255 363.281C351.221 363.916 350.539 364.37 349.788 364.358C346.778 364.201 347.453 367.491 345.66 368.847C345.189 369.726 347.209 371.182 344.938 370.984C339.646 377.639 336.362 387.217 329.707 393.424C327.325 395.013 327.89 398.18 326.452 400.375C324.199 402.017 322.807 404.684 320.461 406.239C316.042 414.675 310.254 422.384 304.735 430.401C296.31 442.221 285.911 453.382 278.575 465.592C273.853 469.307 269.818 474.157 266.93 479.257C260.485 484.212 257.981 493.353 252.467 499.339C244.322 509.167 236.316 521.266 227.64 532.107C246.127 503.705 266.645 475.391 286.953 448.602C296.083 432.841 306.214 417.633 318.825 404.055C331.483 384.364 344.758 365.505 359.75 347.334C359.791 347.45 359.849 347.566 359.925 347.683H359.913ZM137.26 226.205C138.162 225.023 137.527 223.544 136.468 222.671C133.493 219.509 133.26 214.478 129.417 211.876C127.519 207.148 124.986 202.321 121.108 199.043C115.769 190.17 111.181 181.145 105.26 172.627C101.761 163.218 95.8043 153.984 91.2395 145.413C91.2162 141.984 88.3108 141.419 87.4608 137.099C85.813 135.009 86.1682 132.004 83.4899 130.397C83.5598 126.665 80.142 124.854 78.4943 122.106C73.4347 114.945 71.7811 106.427 68.5206 98.45C65.8132 93.0701 62.4129 88.1909 60.0432 82.6597C60.509 82.6305 60.9806 82.5665 61.4406 82.5432C61.2775 82.945 60.1655 84.5461 61.4056 84.1211C62.0344 83.9522 62.902 83.6145 62.64 84.4413C62.1451 85.9842 61.8947 87.2768 63.6647 87.7135C65.3299 88.1851 63.95 90.8226 66.244 90.6829C66.8204 90.7237 67.2804 90.8576 67.2222 91.5155C66.7215 93.8619 69.3939 93.8619 69.7957 95.6552C69.9412 96.8022 70.4885 97.7629 71.6821 98.188C72.7243 98.5548 72.2178 99.9754 73.4114 100.191C73.1785 101.658 74.0344 102.607 74.4827 103.76C74.7389 105.518 74.8495 106.758 76.5729 107.678C76.5671 113.757 82.011 116.802 83.7869 122.287C86.2788 123.486 85.551 126.537 86.8785 128.307C88.2002 130.194 90.6398 131.387 90.7388 133.827C90.174 136.773 93.6849 136.988 93.8538 139.195C94.8785 140.424 95.0473 141.926 95.8858 143.154C96.9396 143.725 96.2351 145.361 97.6267 145.757C97.9818 147.387 98.4418 149.076 99.9905 150.06C100.986 153.163 102.395 156.167 103.589 158.927C105.184 159.457 104.194 161.209 104.998 162.176C107.344 163.824 106.547 167.352 109.015 168.697C109.842 174.851 110.145 171.305 113.085 175.393C113.574 179.492 116.351 183.183 118.82 186.234C119.979 190.496 122.68 194.991 124.718 198.543C129.481 201.564 128.549 209.104 133.283 212.359C135.693 212.965 134.279 215.55 135.332 216.761C137.277 217.768 138.5 219.666 138.517 221.657C137.708 223.736 142.954 224.959 140.474 226.647C138.564 227.311 143.944 232.015 144.858 233.884C147.018 234.816 145.906 237.221 147.728 238.42C147.385 241.442 150.581 242.531 151.507 245.104L150.057 244.941C150.162 241.948 146.826 241.058 146.57 237.995C144.078 236.161 144.788 234.839 143.088 232.65C141.347 230.199 139.315 227.8 137.265 226.211L137.26 226.205ZM40.7827 18.3805C42.5586 21.1462 45.9472 22.037 48.282 24.2146C49.7783 24.628 51.8394 24.2612 52.7477 25.9264C55.5658 27.5159 57.9355 31.1432 61.7375 30.7939C62.902 30.4562 62.6633 32.954 63.8918 31.7429C64.8932 30.7124 65.0097 32.3135 65.7549 32.3834C68.7593 32.5988 66.7156 37.7982 71.6472 35.4751C72.1304 37.9321 75.4143 35.8128 75.3386 38.101C75.1523 39.2946 75.5482 39.9059 76.3051 40.1621C76.9921 40.3892 77.9004 40.2261 78.2556 41.0646C78.9717 41.2858 80.2177 39.2887 79.8043 41.3498C79.4434 41.6584 82.046 43.2305 82.4302 43.3353C88.3691 44.4823 92.3283 50.2173 97.2191 52.6103C98.9774 52.5754 100.27 52.9888 100.893 54.6656C106.372 60.0746 113.685 62.7762 119.932 67.9581C127.891 73.7631 134.884 81.3904 143.082 86.1589C144.241 88.3015 146.034 90.3743 147.868 91.8823C149.638 92.9886 149.428 93.8445 151.693 94.6305C154.488 100.354 162.936 100.558 165.65 106.456C165.882 108.086 167.85 107.021 168.968 107.463C169.62 110.467 175.198 113.291 177.096 115.486C186.785 122.712 193.556 133.769 202.587 139.428C203.361 141.198 204.759 142.258 206.459 142.782C206.726 144.557 208.101 145.25 209.23 146.188C210.418 147.998 213.411 147.882 214.051 149.897L215.67 149.57C215.018 151.108 215.553 152.499 217.102 153.128C220.636 155.207 221.981 159.899 226.197 161.262C231.734 168.732 240.991 174.228 247.565 180.534C257.137 191.189 268.63 202.787 277.288 214.03C278.633 215.154 278.429 217.168 279.407 218.28C280.793 219.014 280.222 220.685 281.102 221.768C282.947 223.637 283.896 225.652 285.09 227.946C286.033 229.483 288.1 230.03 288.88 231.66C294.336 237.879 296.898 245.774 301.538 252.516C305.579 257.279 310.231 261.04 314.085 265.902C330.504 283.695 344.408 306.053 352.711 328.323C353.515 329.965 353.52 333.599 354.673 334.903C360.694 332.096 354.202 323.706 353.718 318.92C356.21 323.537 358.877 329.762 360.641 334.74C357.712 337.54 357.352 342.256 353.538 344.481C350.522 346.827 350.982 351.427 348.699 354.227C342.72 358.745 341.264 367.13 336.292 371.537C334.522 372.119 332.979 373.988 332.502 375.59C332.839 376.754 333.014 377.249 331.553 377.103C329.643 377.092 332.583 379.287 330.836 379.56C328.938 379.956 327.366 380.48 327.162 382.769C326.924 384.923 323.558 385.033 324.112 387.555C324.164 389.825 320.478 390.041 320.397 392.655C319.78 395.1 316.537 395.741 316.374 398.518C314.417 403.234 308.269 404.83 306.633 409.668C304.356 411.275 302.446 413.621 300.152 415.316C295.529 422.256 290.848 429.697 284.618 435.391C278.447 426.535 271.995 418.722 264.217 411.653C264.153 410.099 263.378 409.389 262.08 408.748C261.533 408.224 261.853 407.1 260.915 406.792C258.872 405.942 260.281 402.384 258.01 401.674C257.113 398.78 253.311 397.895 253.148 394.402C252.828 392.096 249.987 391.648 248.485 390.448C246.61 386.664 243.92 383.246 241.306 380.364C241.073 378.245 237.824 378.943 238.598 376.306C238.785 374.402 237.381 372.341 235.402 373.028C235.536 372.597 236.566 370.955 235.343 371.427C234.72 371.625 233.865 371.997 234.086 371.153C234.488 369.569 234.662 368.248 232.857 367.881C231.157 367.473 232.38 364.731 230.086 364.975C229.509 364.958 229.026 364.853 229.044 364.184C229.381 361.791 226.686 361.919 226.15 360.131C225.923 358.978 225.3 358.035 224.071 357.668C222.715 356.876 222.686 355.269 221.923 354.169C220.409 352.143 220.945 349.418 218.412 348.341C217.969 345.901 217.067 343.159 215.53 341.412C210.278 337.534 208.543 330.664 204.299 326.204C200.811 324.749 202.598 319.898 198.662 318.973C198.133 318.792 198.104 318.239 198.115 317.715C197.352 316.545 196.339 315.718 196.083 314.134C194.633 313.686 195.169 311.817 193.655 311.386C193.417 309.191 191.152 308.143 190.971 306.134C188.229 303.014 187.425 299.014 184.776 295.736C183.35 292.918 181.003 290.693 179.303 288.021C179.536 286.414 178.261 285.57 177.958 284.452C172.095 276.627 165.807 264.859 161.475 254.816C159.332 251.922 158.354 244.423 155.21 243.678C155.833 241.488 153.679 240.836 152.963 239.317C152.759 237.314 151.757 235.812 150.255 234.717C149.789 230.799 146.296 226.245 143.391 224.988C144.497 223.684 144.345 222.135 143.065 221.029C140.276 217.797 140.299 212.796 136.608 210.077C133.283 200.697 125.964 192.709 121.236 184.353C114.669 171.288 107.618 156.493 100.253 143.806C100.287 140.68 97.2249 139.812 96.3224 135.696C94.9251 134.846 95.5248 133.146 94.6689 131.964C92.1129 129.553 91.8916 125.827 89.1551 123.603C82.1566 116.814 80.0664 106.887 75.7229 98.4558C72.2876 92.9362 68.4041 87.9056 65.0737 82.3278C56.3401 69.5302 45.889 56.4065 39.4319 41.8506C35.3446 31.9933 27.7522 23.8419 25.9881 13.5596C29.3883 13.4141 28.1307 14.0021 30.4422 15.4868C32.8759 15.7139 35.1234 17.9555 37.5047 18.8347C38.6983 19.2306 39.4843 17.0414 40.8002 18.3805H40.7827ZM287.623 439.479C287.623 439.479 287.658 439.438 287.669 439.415C287.652 439.438 287.64 439.455 287.623 439.479ZM352.164 315.66C352.152 315.747 352.152 315.823 352.146 315.904C351.663 315.433 351.5 314.845 351.401 314.257C351.838 314.658 352.344 314.973 352.164 315.666V315.66ZM299.035 241.104C299 241.04 298.965 240.982 298.93 240.918C300.973 241.192 299.64 243.782 301.329 244.51C303.954 245.302 303.954 247.771 304.88 249.797C306.004 250.484 306.604 251.34 306.778 252.667C303.675 251.538 302.575 248.266 301.591 245.256C301.393 244.621 301.02 244.114 300.036 244.044C299.465 243.288 299.768 241.849 299.035 241.11V241.104ZM311.436 258.193C310.912 258.228 310.796 257.692 310.772 257.226C311.093 257.483 311.11 257.943 311.436 258.193ZM309.724 255.608C308.991 255.194 307.919 255.2 307.704 254.199C308.205 254.816 309.154 255.066 309.724 255.608ZM298.877 240.825C298.534 240.237 298.231 239.643 298.138 238.95C298.633 239.387 298.755 240.079 298.877 240.825ZM293.579 233.448C293.428 233.197 293.282 232.947 293.148 232.685C293.323 232.906 293.457 233.162 293.579 233.448ZM291.256 229.914C291.11 229.797 290.971 229.669 290.842 229.535C291.017 229.64 291.157 229.768 291.256 229.914ZM301.428 419.31C298.476 425.109 294.592 430.78 290.289 435.566C292.758 429.482 297.503 424.515 301.428 419.31ZM152.27 247.194C152.101 246.874 151.955 246.542 151.845 246.187C152.118 246.461 152.212 246.816 152.27 247.194ZM58.4653 79.2012C58.442 79.3118 58.4362 79.4224 58.4246 79.533C57.6968 78.5199 56.4974 77.8795 56.5498 76.4064C57.9413 76.9246 58.9253 77.4836 58.4653 79.2012ZM55.9617 75.044C55.7055 74.6597 55.461 74.2696 55.2397 73.8679C55.8744 74.0018 55.9442 74.52 55.9617 75.044ZM66.0519 100.325C66.0286 100.208 66.0053 100.092 65.9878 99.9696C66.1742 99.9929 66.0402 100.197 66.0519 100.325ZM361.351 345.272C361.282 345.389 361.194 345.494 361.095 345.598L361.351 345.272ZM381.52 311.322C381.276 311.439 381.06 311.549 380.915 311.823C381.054 311.543 381.188 311.258 381.316 310.967C381.369 311.089 381.439 311.206 381.526 311.322H381.52ZM378.609 315.648C379.378 314.507 380.111 313.366 380.74 312.155C378.958 316.329 376.059 320.568 373.136 323.91C374.953 321.15 376.763 318.391 378.609 315.648ZM371.966 325.686C371.733 326.548 371.354 327.31 370.568 327.782C371.034 327.083 371.506 326.385 371.966 325.686ZM369.072 330.006C368.973 330.204 368.857 330.385 368.699 330.553C368.822 330.373 368.95 330.192 369.072 330.006ZM223.786 143.661C223.221 143.422 222.825 142.968 222.418 142.531C223.047 142.764 223.507 143.137 223.786 143.661ZM186.826 116.639C192.293 121.518 197.376 126.444 202.202 131.847C204.677 130.951 202.965 132.907 207.21 134.56C208.077 136.325 209.434 137.25 211.175 137.693C211.495 140.033 219.117 144.802 220.531 144.004C219.908 145.518 220.485 146.933 222.034 147.492C224.223 148.051 224.543 150.601 226.296 151.643C231.902 156.167 236.624 161.524 242.086 166.118C242.616 168.027 245.573 168.278 245.888 170.642C247.373 173.512 249.521 175.585 251.372 178.263C251.798 178.845 252.001 179.62 252.811 179.853C254.383 180.167 253.736 182.252 255.186 182.799C257.585 183.41 258.161 185.628 259.064 187.527C255.786 184.959 253.626 179.992 249.329 178.065C248.06 174.205 243.349 173.081 241.993 169.233C239.902 167.579 238.441 168.412 236.164 165.425C234.226 159.864 227.536 159.212 225.515 154.653C221.876 154.653 222.01 150.636 219.74 149.553C218.657 149.489 218.115 148.75 217.527 148.097C216.811 147.474 219.082 146.636 218.418 146.188C215.769 145.227 214.051 143.049 211.71 141.821C210.325 141.576 209.504 140.831 209.306 139.393C207.122 138.659 207.204 135.76 204.561 135.62C202.074 133.594 200.287 130.747 197.719 129.076C197.661 127.236 195.489 127.795 194.924 126.438C194.651 124.587 192.59 124.709 191.734 123.533C190.703 119.335 186.162 119.02 184.27 115.725C183 113.507 180.846 112.453 179.326 110.537C181.818 112.581 184.328 114.601 186.826 116.633V116.639ZM175.664 107.504C175.059 107.405 174.639 107.143 174.43 106.531C174.861 106.84 175.262 107.16 175.664 107.504ZM171.466 103.981C172.497 103.801 173.003 104.133 173.131 105.087C172.27 104.639 171.128 104.686 170.401 104.039C170.698 104.098 171.059 104.069 171.466 103.987V103.981ZM169.382 102.45C168.945 102.048 168.473 101.78 168.281 101.163C168.724 101.507 169.19 101.897 169.382 102.45ZM155.28 90.549C156.264 90.6189 156.025 91.9464 156.567 92.4587C155.484 91.9988 154.686 91.0497 154.104 90.0483C154.395 90.3219 154.768 90.5082 155.28 90.549ZM152.31 88.1094C153.027 88.3831 153.417 88.8372 153.679 89.5068C152.986 89.041 152.142 88.9478 151.891 87.9056C152.043 87.9697 152.188 88.0279 152.316 88.1094H152.31ZM105.417 49.769C107.752 52.8083 110.587 55.1722 114.314 56.1853C116.73 58.4851 119.693 59.603 122.482 61.5419C129.795 66.9683 136.945 72.3773 142.995 79.0672C146.791 80.7266 149.062 83.3001 151.076 86.9973C150.587 86.6305 149.556 87.1895 149.324 86.2579C147.542 82.8227 143.757 81.338 140.805 79.4341C140.363 79.3351 139.728 79.1895 139.699 78.7878C139.548 77.0294 137.9 76.7849 137.452 75.37C136.974 73.2041 134.838 73.2158 133.533 71.9756C131.298 68.9363 127.728 67.8941 125.132 65.7573C124.747 64.3774 122.902 65.1285 122.296 63.8359C120.712 62.555 119.769 60.2551 117.399 60.2318C115.333 60.2144 115.187 58.2348 113.301 57.9553C112.852 57.0004 112.433 55.7777 111.245 55.6729C108.468 55.7661 107.6 53.4022 106.017 51.7661C104.52 51.5274 103.763 50.5259 102.931 49.3556C103.816 49.3323 104.689 49.4488 105.423 49.769H105.417ZM98.5582 46.4328C99.2627 46.8811 99.9381 47.4284 100.416 48.162C99.059 48.0863 98.3079 46.9335 97.1026 46.3455C96.666 45.8156 95.5597 46.1766 95.2453 45.2741C94.2962 44.197 92.2177 44.7618 92.1245 42.6715C94.2904 43.8826 96.4447 45.1228 98.5582 46.4328ZM85.0212 38.8579C84.7301 38.8113 84.4506 38.7356 84.1828 38.6483C84.6602 38.2523 85.1144 37.903 85.0212 38.8579ZM80.4041 36.2029C80.3982 36.2669 80.404 36.3251 80.3982 36.3892C79.979 36.0864 79.618 35.6672 79.4142 35.1548C80.0605 34.9394 80.4914 35.312 80.4099 36.2029H80.4041ZM76.5496 33.7982C76.4681 33.7982 76.3924 33.7982 76.3167 33.7808C76.4099 33.7458 76.4914 33.7458 76.5496 33.7982ZM136.316 654.988C147.955 636.624 160.025 615.32 174.744 597.847C175.035 594.278 178.674 590.307 181.19 587.146C182.284 583.635 185.149 581.708 186.785 578.43C190.761 570.145 195.053 565.335 200.724 557.714C210.988 542.762 221.032 527.041 230.54 511.973C247.815 491.181 263.495 468.171 280.816 448.218C283.104 447.31 284.094 440.311 285.853 443.019C284.601 446.139 279.867 447.496 279.955 451.671C279.867 452.381 279.256 452.754 278.662 453.062C272.059 462.273 265.137 471.903 258.057 480.8C255.652 484.427 251.949 487.822 250.656 492.014C247.565 493.423 246.348 495.909 245.707 499.17C237.83 509.173 230.4 520.503 223.175 530.867C223.175 533.743 220.828 535.379 219.687 537.708C213.562 541.958 212.659 550.244 208.019 554.669C205.9 557.3 205.364 560.939 202.366 563.286C199.821 564.986 199.745 569.626 196.596 568.869C193.766 575.839 189.702 581.376 185.294 587.076C166.785 609.597 153.294 635.6 134.436 658.202L136.316 654.988ZM42.1044 804.542C42.0229 804.699 41.9356 804.856 41.8541 805.014C41.9239 804.845 42.0054 804.688 42.1044 804.542ZM40.3635 807.418C40.4916 807.273 40.6488 807.127 40.8119 806.993C40.6139 807.372 40.4101 807.756 40.2121 808.134C40.1481 807.872 40.1889 807.628 40.3635 807.424V807.418ZM31.8512 859.063C36.8061 853.415 38.1394 845.916 41.1961 839.36C42.8555 836.152 44.4683 832.909 46.1393 829.543C47.7056 827.453 46.0869 824.443 48.4101 822.871C49.1204 822.172 47.4144 821.264 48.0374 820.519C48.3868 819.96 49.0913 819.43 49.0796 818.877C48.9748 815.64 55.1 814.568 53.0156 810.685C52.2703 808.781 55.525 807.255 54.6167 804.746C54.8321 802.912 58.18 803.57 58.2615 801.351C58.2324 799.966 59.263 798.912 59.3387 797.701C58.8962 796.967 58.0578 796.158 59.787 796.053C62.1509 793.73 62.1684 789.584 63.7637 786.609C66.6923 778.627 72.736 772.146 74.1217 763.849C77.848 759.541 80.7476 754.656 82.2614 749.154C94.634 722.085 114.913 699.326 131.041 675.407C137.254 670.179 139.327 660.915 144.532 654.674C145.58 652.956 148.334 652.688 147.705 650.167C147.693 647.466 151.094 646.563 151.909 643.949C166.034 622.412 181.661 602.721 195.187 582.377C197.964 580.683 200.566 574.133 202.558 570.57C205.085 567.385 208.817 564.887 210.109 560.829C217.614 551.647 224.205 542.302 232.456 533.819C235.844 526.325 243.512 521.627 247.518 514.366C253.195 504.782 263.297 495.932 268.432 485.423C274.662 476.538 282.831 468.963 287.943 459.129C295.925 453.481 300.746 444.375 306.202 436.672C308.374 432.655 312.688 429.604 314.289 425.132C314.732 422.466 317.154 421.738 317.876 419.211C322.004 416.469 322.161 410.891 326.662 408.143C328.507 404.399 331.832 401.889 333.183 397.802C334.947 395.199 336.938 392.527 338.132 389.592C344.653 385.342 345.689 377.08 350.178 371.188C353.09 368.975 354.091 366.373 355.424 363.223C356.897 362.082 357.992 360.341 358.644 358.582C360.443 357.057 361.398 354.81 362.248 352.591C362.644 350.629 365.014 349.791 365.095 347.596C370.26 342.559 372.268 335.852 374.79 329.441C380.437 324.073 384.059 317.558 386.935 310.321C392.641 304.12 398.184 294.781 403.372 288.12C403.983 290.781 404.297 293.43 407.075 294.798C408.775 299.532 411.878 304.027 414.527 308.679C415.255 310.094 418.038 308.644 418.149 310.699C418.731 314.006 418.813 313.954 420.588 316.964C422.364 322.932 427.593 326.746 429.322 332.748C431.436 335.636 432.152 340.102 435.697 342.041C437.072 342.559 435.843 345.051 437.665 344.836C438.201 344.778 438.574 344.917 438.731 345.313C442.079 349.994 439.278 350.955 442.475 354.355C442.888 354.914 444.594 354.443 444.74 355.159C444.425 358.192 448.623 358.303 447.93 360.923C446.696 363.38 449.654 365.074 450.684 366.745C451.529 366.775 452.664 366.507 451.773 367.98C455.424 375.45 462.661 382.245 465.578 390.646C466.341 394.151 471.266 394.716 471.226 398.704C477.007 410.297 485.886 420.3 492.408 431.968C498.998 441.481 503.08 452.853 511.08 461.225C513.747 465.33 514.585 470.89 518.107 474.611C522.107 483.164 529.42 490.465 534.76 498.582C544.256 514.034 557.368 530.331 566.16 547.49C585.711 573.981 602.718 601.149 624.966 627.769C639.9 648.176 654.27 671.483 669.74 691.634C679.51 708.787 695.422 722.021 703.306 740.967C730.793 779.191 756.167 820.134 776.627 862.236C775.498 860.245 772.691 861.869 771.713 859.965C769.978 858.021 764.54 855.925 762.129 854.178C761.029 853.45 759.451 856.128 758.595 854.568C756.359 851.162 752.575 850.044 749.687 847.366C744.662 846.673 741.78 842.527 737.547 840.245C736.115 838.731 733.373 840.245 732.534 838.026C732.098 837.351 731.032 838.952 730.543 838.358C729.553 836.786 727.509 837.706 727.288 835.406C726.601 832.769 724.15 833.322 722.496 833.741C721.728 832.332 720.499 831.913 718.904 832.047C716.336 829.869 720.592 829.613 714.002 827.587C712.464 828.658 712.866 828.029 712.627 826.609C705.111 823.855 698.497 818.655 691.894 814.661C688.453 814.731 686.299 811.453 684.156 809.235C674.7 805.101 665.821 798.912 656.965 792.956C650.479 788.641 644.954 782.452 637.536 779.744C633.594 774.429 628.249 770.493 622.881 766.749C619.691 764.018 614.549 762.009 611.394 758.988C610.066 758.056 610.328 755.593 608.063 756.251C606.357 755.337 605.193 753.812 603.469 752.56C589.798 743.256 579.144 729.177 566.946 720.548C565.245 718.848 564.215 716.589 561.694 715.984C559.592 712.117 554.643 708.642 551.062 707.966C552.419 704.455 547.854 704.123 546.655 701.661C541.659 696.263 536.529 691.215 531.039 686.225C519.476 674.831 508.064 663.343 500.122 648.764C492.559 636.927 484.192 625.999 478.672 613.725C470.05 602.302 462.678 590.01 458.009 576.06C438.422 541.923 419.599 506.663 398.807 473.493C389.73 474.558 417.351 508.171 418.207 512.864C419.744 513.825 419.773 515.239 420.734 516.573C421.217 516.829 421.549 517.202 421.578 517.801C422.114 519.408 421.503 521.58 423.203 522.541C423.837 525.772 427.639 527.426 427.47 531.152C427.843 534.238 431.762 535.199 432.885 537.848C433.264 542.057 436.635 544.98 438.242 548.206C438.259 550.459 441.665 550.366 440.635 553.003C440.291 554.942 441.438 557.411 443.604 557.056C441.502 560.543 444.932 557.399 444.78 559.286C444.227 560.893 443.936 562.273 445.747 562.983C447.441 563.717 445.962 566.407 448.315 566.558C448.903 566.674 449.386 566.872 449.316 567.583C448.757 570.028 451.552 570.424 451.936 572.386C452.285 574.622 454.446 575.996 455.639 577.725C456.082 579.897 456.646 584.881 458.684 585.772C458.981 587.99 460.064 590.04 460.443 592.287C463.581 597.091 467.756 601.999 469.578 607.6C469.811 609.387 471.435 610.43 472.291 611.81C475.796 613.783 473.892 618.761 477.921 620.188C478.771 621.114 478.381 622.395 479.709 623.175C480.501 625.248 481.357 627.332 483.033 628.793C484.349 632.345 486.923 635.332 488.85 638.721C486.311 635.169 482.737 633.073 481.805 628.753C479.336 627.582 478.463 624.834 477.1 622.86C475.93 622.36 475.878 621.277 475.493 620.333C471.197 613.748 465.357 608.642 460.693 602.098C447.43 575.583 429.456 551.757 417.025 524.45C409.91 509.318 402.056 494.652 395.127 479.991C388.123 460.247 390.574 477.505 386.807 471.257C385.084 472.986 384.606 475.991 384.822 478.553C381.223 483.141 378.417 489.277 375.599 494.925C373.305 498.739 373.054 504.026 370.149 507.222C369.759 507.432 369.846 508.159 369.753 508.666C368.688 514.244 365.672 518.826 363.692 523.769C361.386 525.644 359.937 527.845 359.215 530.698C359.052 534.052 355.156 535.373 354.766 538.477C355.075 542.954 351.739 545.533 349.911 549.248C348.432 550.832 348.531 553.306 347.058 554.674C345.416 555.315 346.435 557.475 345.334 558.319C343.162 559.117 340.175 560.934 341.887 563.367C341.404 563.431 339.529 563.047 340.35 564.066C340.746 564.59 341.387 565.277 340.49 565.399C336.886 565.353 338.679 568.142 336.63 569.539C334.545 570.232 336.804 572.235 335.349 573.085C332.921 573.696 333.905 576.281 332.344 577.51C331.296 578.191 330.58 579.169 330.621 580.514C330.662 581.684 329.101 581.871 329.34 583.111C327.739 584.328 323.384 587.175 323.593 589.265C317.957 592.59 316.508 598.936 312.03 603.536C311.296 607.181 306.965 608.403 306.056 611.961C305.684 615.903 300.403 616.007 300.653 620.188C300.63 620.776 300.1 621.009 299.576 621.189C295.524 626.511 291.337 631.553 287.023 637.067C286.47 637.737 285.661 638.08 284.915 638.517C283.751 639.32 284.391 641.312 282.679 641.655C280.81 644.194 277.818 646.493 276.677 649.463C276.024 651 272.799 650.656 272.979 653.183C272.665 654.173 272.578 655.873 271.629 656.409C264.426 661.725 261.166 670.755 253.899 676.06C252.048 682.068 246.191 685.224 242.604 690.418C241.736 692.094 241.929 694.423 239.466 694.703C237.649 695.704 237.702 698.749 235.745 699.955C234.854 700.939 232.735 700.548 232.683 702.324C232.584 703.372 230.965 705.893 229.993 704.513C227.99 702.58 224.211 714.365 221.183 714.248L220.135 715.989C216.17 717.614 215.419 722.772 211.117 724.28C210.115 724.933 210.051 726.673 208.962 726.988C207.996 727.128 207.39 727.698 207.058 728.537C206.523 730.516 203.74 730.202 203.227 732.327C202.022 734.289 198.82 734.085 197.801 736.507C197.568 736.868 196.66 736.606 196.497 737.171C195.402 740.472 191.932 741.404 189.434 743.326C186.162 746.51 182.383 749.445 179.035 752.449C177.964 755.867 174.127 756.135 171.868 758.429C167 762.178 161.434 768.042 156.887 771.605C155.693 772.164 154.046 772.082 153.795 773.94C153.754 774.225 153.3 774.382 152.974 774.458C148.252 775.715 145.37 780.041 141.9 782.772C138.273 783.453 135.239 785.06 132.642 787.494C129.859 789.375 126.407 790.126 124.712 793.445C124.159 794.76 122.255 793.875 121.708 795.075C120.089 797.945 115.6 797.415 114.197 800.624C113.661 801.899 112.736 802.44 111.408 802.58C110.779 803.686 109.516 804.327 108.066 804.437C106.069 806.038 105.108 808.688 102.116 808.862C99.6354 810.749 96.2351 811.482 94.3661 814.178C92.3632 816.297 89.3007 817.392 87.519 819.756C81.3764 820.332 78.669 826.743 73.7549 829.572C72.212 830.725 69.6501 829.951 69.1669 832.367C68.9398 833.124 68.3808 833.52 67.7462 833.782C67.1407 834.032 66.2557 833.765 65.9529 834.568C65.621 835.447 64.2819 835.069 64.113 836.163C62.2848 836.647 61.0679 838.038 59.886 839.494C59.1174 840.961 57.0155 840.484 56.4624 842.294C54.1568 844.262 50.6109 844.227 49.0214 847.331C48.4159 849.526 45.9938 850.067 45.5163 852.408C44.6255 853.299 42.6692 852.868 41.889 854.131C41.0972 855.331 39.0069 854.766 38.5178 856.21C35.595 857.118 33.9938 859.453 32.3752 861.957C31.6358 861.037 30.8381 860.047 31.8396 859.057L31.8512 859.063ZM706.968 740.63C707.748 741.526 708.331 742.563 708.767 743.698C708.383 742.394 707.061 741.963 706.968 740.63ZM744.336 849.508C745.297 849.264 745.844 849.794 746.217 850.673C745.518 850.405 744.825 850.102 744.336 849.508ZM525.118 686.231C525.007 686.138 524.896 686.039 524.78 685.946C524.896 686.033 525.013 686.132 525.118 686.231ZM566.393 727.465C566.107 727.227 565.822 726.994 565.537 726.755C565.921 726.895 566.183 727.157 566.393 727.465ZM422.545 550.855C420.577 552.054 423.348 553.225 422.906 553.76C421.619 553.463 421.7 553.527 421.293 554.017C421.13 554.214 420.216 553.824 420.676 554.523C418.842 554.075 421.066 556.147 419.581 555.984C419.034 555.827 419.616 556.573 418.836 556.246C418.271 556.014 419.092 556.904 418.545 556.73C417.613 556.695 417.38 557.289 418.12 558.273C418.428 558.692 417.887 558.471 417.549 558.395C417.165 558.296 418.667 559.495 418.358 559.455C418.213 559.484 417.788 559.332 417.916 559.542C418.801 560.904 415.453 558.459 416.128 559.973C416.07 560.078 417.398 561.178 417.147 561.161C416.303 560.916 416.338 561.306 416.903 562.092C417.188 562.669 414.481 560.875 414.906 561.621C414.929 561.871 415.319 562.383 414.778 562.232C414.97 562.657 416.641 563.816 415.005 562.884C414.842 562.785 414.591 562.669 414.615 562.703C414.947 563.274 414.021 562.942 414.248 563.408C415.383 565.644 411.075 566.768 411.901 567.425C413.072 569.207 411.791 568.054 411.145 568.963C410.3 568.805 410.009 568.829 410.504 569.749C409.27 569.655 411.517 571.478 408.548 570.546C407.872 570.226 409.037 572.607 407.197 572.147C407.302 574.156 406.254 572.287 405.788 572.951C406.19 576.316 403.465 572.293 404.559 575.187C404.711 575.49 404.449 575.338 404.169 575.163C403.692 575.07 404.571 575.874 403.284 575.425C403.779 576.369 402.504 575.262 403.005 576.217C403.098 576.374 402.859 576.235 402.731 576.182C401.846 575.769 402.225 576.543 402.219 576.864C400.915 576.439 401.241 577.848 400.041 576.997C399.511 576.928 400.623 578.249 399.581 577.58C398.836 577.143 399.465 578.564 398.248 578.191C397.817 578.075 398.219 578.779 398.3 579.07C396.798 578.179 396.74 578.348 397.345 579.897C397.747 580.695 396.303 579.6 396.262 580.089C395.412 580.473 395.244 581.166 395.267 581.801C393.654 580.922 394.347 583.46 392.711 582.657C392.099 582.511 393.607 584.421 392.955 584.299C392.897 584.374 392.676 584.188 392.769 584.45C392.682 584.38 392.542 584.223 392.542 584.24C391.931 584.928 390.819 584.962 391.552 584.066C391.913 583.647 392.03 583.437 391.436 583.67C390.3 583.996 390.679 583.268 391.482 582.861C393.508 581.76 390.795 582.552 390.638 581.766C390.26 581.341 388.682 582.307 389.788 581.003L389.182 580.963C389.858 580.124 389.532 579.973 388.641 580.211C388.827 579.751 387.704 580.176 388.356 579.396C387.709 579.408 389.008 578.29 387.447 578.657C388.577 577.393 386.923 578.372 387.156 577.749C387.948 576.695 386.452 577.487 386.621 576.986C387.657 575.565 386.568 576.066 386.877 575.251C385.241 575.769 386.091 574.482 386.044 573.667C386.265 573.26 385.223 573.719 385.491 573.248C385.73 572.834 385.41 572.77 385.328 572.555C385.27 572.404 385.456 572.078 384.973 572.223C383.942 572.584 385.351 571.408 384.525 571.519C382.597 572.008 384.065 571.152 383.482 570.878C383.977 569.836 382.51 568.31 381.328 568.433C380.897 568.514 380.839 568.305 380.845 568.072C380.856 567.804 381.392 567.187 380.554 567.49C380.653 567.129 381.41 566.319 380.164 566.867C379.971 566.954 380.041 566.797 380.123 566.674C381.27 565.027 379.413 565.644 379.36 564.916C379.797 564.299 378.207 565.038 378.533 564.584C380.431 560.928 378.76 563.309 378.597 561.743C379.395 559.961 376.693 561.289 377.375 560.299C377.893 559.519 376.431 560.753 376.822 559.117C377.398 557.917 374.603 559.554 375.68 558.203C374.458 558.348 375.418 558.063 375.564 557.411C374.196 557.114 374.004 557.789 374.615 556.019C373.206 556.27 375.308 554.517 373.503 554.971C373.264 555.03 373.054 555.065 373.2 554.849C373.415 554.517 372.839 554.727 372.938 554.465C373.025 554.238 372.181 554.622 372.565 554.162C372.95 553.708 372.03 554.162 371.966 554.011C373.939 551.198 370.242 552.904 370.009 551.484C369.835 551.012 371.343 549.842 369.753 550.436C369.287 550.61 369.212 550.506 369.27 550.313C369.322 550.133 369.864 549.638 369.398 549.789C368.891 549.958 369.701 549.207 368.973 549.527C369.049 549.295 369.48 548.823 368.938 548.992C368.362 549.172 369.002 548.503 368.234 548.805C367.395 549.044 368.804 547.897 367.576 548.247C367.232 548.293 367.22 548.107 367.529 547.711C368.944 546.168 365.73 546.587 364.857 546.715C365.736 545.242 364.659 545.9 365.392 544.893C365.765 544.398 364.571 545.085 365.183 544.369C366.417 542.849 363.587 544.351 363.692 543.466C363.599 543.053 363.506 542.645 362.784 542.669C363.116 541.778 364.426 541.667 364.385 540.584C364.74 538.878 366.382 537.848 366.731 536.113C366.65 535.006 367.919 534.418 367.634 533.172C367.622 531.536 369.742 530.797 369.415 528.951C370.632 526.081 373.811 524.317 373.771 520.736C374.103 516.305 378.236 512.759 378.993 508.212C384.123 502.465 387.645 492.125 392.466 485.703C389.124 482.011 386.522 489.056 384.6 491.385C386.632 487.065 388.88 483.129 390.69 478.803C395.773 492.864 401.869 506.069 409.869 518.25C409.782 521.889 412.239 524.398 414.079 527.385C414.265 529.72 414.9 532.089 416.495 533.824C419.861 536.747 419.098 541.58 422.783 544.398C423.686 546.424 424.786 546.616 424.903 548.916C425.077 549.231 424.81 549.225 424.408 549.097C423.406 548.771 423.208 549.091 423.896 550.121C424.076 550.395 423.831 550.354 423.47 550.197C422.073 549.527 423.604 551.239 422.51 550.867L422.545 550.855ZM361.212 547.222C361.276 547.344 361.142 547.286 361.049 547.297C361.101 547.28 361.171 547.175 361.212 547.222ZM206.715 741.404C200.584 748.228 191.35 753.2 186.284 761.194C171.961 770.679 160.019 785.002 145.463 793.369C134.605 801.957 125.143 811.203 112.52 817.404C99.5539 826.324 87.2861 835.674 74.0227 844.227C75.3211 843.581 74.407 841.962 74.9601 841.252C76.5263 841.072 77.3473 840.105 77.7782 838.586C78.471 837.322 80.963 839.546 81.6792 837.922C82.2148 837.287 82.4477 836.321 83.4433 836.21C83.9848 835.593 82.5409 833.683 84.4215 834.737C85.1842 834.842 86.9076 833.276 87.5947 832.693C92.0022 826.003 101.027 824.309 104.91 817.654C107.507 816.425 110.948 815.756 112.45 813.078C125.58 801.509 141.9 792.245 154.82 780.595C159.251 779.151 163.408 776.373 166.395 773.031C172.584 770.871 175.443 764.234 180.933 760.729C183.478 759.756 184.229 759.646 184.759 756.601C194.197 752.368 201.015 741.643 210.301 736.932C209.684 738.941 207.873 739.686 206.721 741.404H206.715ZM35.4727 864.722C35.071 863.721 35.3039 863.109 36.0783 862.917C39.0884 862.09 41.2893 860.6 43.5134 858.481C46.6342 858.079 46.7682 854.259 49.6619 853.572C50.7041 853.409 50.9253 852.088 52.1946 852.152C53.1145 852.198 53.0796 850.719 54.0869 850.638C57.4639 850.323 57.7957 845.98 60.573 845.462C61.3532 845.345 60.3052 843.732 61.033 843.535C62.8554 843.273 62.7855 841.072 64.9631 841.805C67.5832 842.289 68.0839 839.756 68.3051 838.143C70.8612 838.551 70.4769 834.527 72.6836 835.372C74.8728 836.618 75.9383 833.98 77.1843 833.025C77.0737 832.239 76.6719 831.168 78.0576 832.059C81.7374 830.719 84.4448 826.219 88.3691 824.309C84.5729 826.97 82.8494 831.995 78.1683 833.246C74.9252 833.788 76.4972 836.332 72.474 837.77C70.6283 839.558 68.0373 840.46 66.5934 842.888C66.4886 843.372 65.9878 843.826 65.5104 843.89C63.3678 844.158 63.4551 847.063 61.1902 847.162C56.2703 848.146 55.0942 854.05 51.7929 856.681C49.5629 857.264 47.3504 858.748 45.7492 860.134C43.7172 861.345 41.4174 861.84 40.7595 864.588C36.7013 867.68 32.416 870.009 28.4684 872.972C28.6605 869.601 36.1074 868.064 35.4727 864.716V864.722ZM232.514 706.72C233.061 706.802 233.608 706.895 234.15 706.947C233.061 708.711 231.803 710.313 230.261 711.687C230.86 709.631 233.114 708.729 232.514 706.72ZM349.509 559.012C349.357 559.03 349.2 559.047 349.043 559.059C349.165 558.762 349.299 558.465 349.433 558.18C349.643 558.471 349.765 558.715 349.503 559.012H349.509ZM354.918 548.491C355.052 548.299 355.191 548.113 355.325 547.92C355.343 548.421 355.517 548.811 354.784 548.677C354.83 548.613 354.871 548.549 354.918 548.491ZM341.13 574.063C341.503 573.364 341.713 572.584 342.039 571.874C341.934 572.695 342.004 573.719 341.13 574.063ZM213.387 734.01C213.178 734.638 212.758 734.941 212.165 735.163C212.555 734.737 212.916 734.295 213.387 734.01ZM325.264 597.306C324.665 598.412 323.966 599.443 323.116 600.38C323.756 599.303 324.438 598.255 325.264 597.306ZM339.832 575.594C339.797 575.658 339.756 575.722 339.721 575.786C339.756 575.717 339.791 575.653 339.832 575.594ZM332.635 583.355C332.711 583.536 332.595 583.577 332.443 583.641C332.507 583.548 332.571 583.449 332.635 583.355ZM327.279 589.533C327.669 590.523 326.604 590.633 326.045 591.123C326.446 590.587 326.854 590.057 327.279 589.533ZM321.666 596.369C319.931 601.9 316.013 606.802 312.455 611.064C311.448 614.639 309.62 617.16 306.918 619.478C305.963 620.496 306.918 622.796 305.212 623.239C304.502 624.776 303.128 625.766 302.318 627.163C302.214 628.444 300.379 628.613 300.583 630.121C300.618 630.389 300.158 630.604 299.879 630.79C296.845 634.633 293.829 638.779 290.493 642.296C289.113 644.636 286.382 647.67 284.304 649.859C282.639 652.188 283.582 652.659 280.415 654.051C278.516 658.284 279.576 658.08 275.524 661.335C270.627 668.112 264.752 674.249 259.541 680.287C257.911 686.138 250.313 688.199 248.339 694.039C248.386 696.607 245.387 696.17 244.438 697.637C244.223 701.474 239.943 701.666 238.581 704.141C238.424 705.305 237.591 705.928 236.846 706.592C232.176 707.273 245.69 695.826 246.173 693.567C254.29 685.952 260.083 675.477 266.528 667.041C280.048 653.038 291.925 636.31 303.896 621.871C311.186 614.191 314.394 603.524 321.876 595.559C321.765 595.804 321.695 596.077 321.66 596.369H321.666ZM321.398 603.32C321.171 603.926 320.851 604.467 320.461 604.962C320.769 604.415 321.084 603.868 321.398 603.32ZM229.48 712.933C229.119 714.196 228.409 715.029 227.25 715.39C228.036 714.388 228.857 713.422 229.684 712.449C229.603 712.601 229.533 712.764 229.48 712.933ZM225.504 717.247C225.003 717.346 224.566 717.509 224.176 717.724C224.345 716.845 225.416 717.078 225.929 716.589L225.504 717.247ZM221.975 720.641C220.939 721.148 220.502 722.347 219.594 722.994C219.879 721.69 221.015 721.241 222.01 720.548C221.999 720.577 221.987 720.607 221.975 720.641ZM67.7229 848C67.0533 846.591 68.7826 846.923 69.2018 846.23C69.6792 844.542 71.3211 845.112 72.6894 845.013C70.9893 845.939 69.3706 846.993 67.7229 848.006V848ZM90.8145 822.679C91.9265 821.951 92.9746 821.118 94.2264 820.629C93.6267 822.12 92.3923 822.813 90.8145 822.679ZM98.0342 817.59C98.5932 816.816 99.0764 815.826 100.095 815.709C99.7402 816.763 98.8668 817.043 98.0342 817.59ZM347.25 561.586C347.669 561.056 348.234 560.613 348.612 560.078C349.101 560.805 347.884 561.463 347.25 561.586ZM351.791 554.244C351.983 553.865 352.17 553.481 352.35 553.097C352.187 553.481 352.234 554.115 351.791 554.244ZM392.379 584.561C392.466 584.415 392.542 584.305 392.571 584.252C392.525 584.951 391.657 585.871 392.379 584.561ZM361.258 548.025C361.305 547.932 361.311 547.862 361.427 547.851C361.363 548.037 361.206 548.287 361.188 548.445C361.142 548.363 361.154 548.229 361.258 548.025ZM399.669 597.702L399.377 597.778C399.412 597.684 399.593 597.708 399.669 597.702ZM402.062 581.813C400.967 581.737 402.085 582.459 401.788 582.703C400.565 582.529 400.676 583.082 400.821 583.635C400.006 584.241 400.891 584.701 400.862 585.475C400.554 588.066 397.904 586.086 400.431 588.398C398.72 587.245 397.439 596.019 396.722 593.038L395.412 593.463C398.027 591.594 395.966 592.584 395.837 591.256C395.902 590.901 396 590.523 395.704 590.383C394.679 588.165 393.724 590.488 394.789 587.926C396.35 588.706 395.29 586.954 395.785 586.389C397.462 585.289 396.49 583.932 397.369 584.473C397.66 584.613 397.637 584.392 397.398 583.955C397.229 583.647 397.177 583.454 397.485 583.652C398.591 584.229 399.238 582.732 399.884 582.04C400.134 581.032 401.2 581.882 401.637 581.428C401.811 580.706 402.382 581.603 402.073 581.801L402.062 581.813ZM404.297 580.427C402.993 580.107 403.552 581.073 402.26 581.032C403.139 580.788 403.709 580.136 404.332 579.53C404.391 579.833 405.147 580.572 404.297 580.427ZM421.712 561.149C421.636 560.934 421.712 560.829 421.916 560.829C422.032 561.12 422.108 561.341 421.712 561.149ZM423.045 558.273C423.098 558.145 422.271 557.335 422.946 557.58C423.505 557.545 423.703 558.57 423.045 558.273ZM426.556 554.075C426.679 553.923 426.079 553.05 426.58 553.271C428.443 552.811 427.75 553.819 428.029 555.233C427.546 554.779 426.772 554.127 426.556 554.081V554.075ZM497.997 656.677C498.195 656.723 498.253 656.84 498.288 657.009C498.189 656.898 498.096 656.787 497.997 656.677ZM502.492 662.01C503.557 662.231 503.796 663.017 504.023 663.908C503.517 663.274 503.004 662.645 502.492 662.01ZM507.092 668.316C506.131 668.217 506.038 667.314 505.851 666.54C506.399 667.18 506.946 667.815 507.505 668.45C507.377 668.397 507.237 668.351 507.092 668.316ZM511.79 672.945C510.888 671.664 508.879 671.535 508.693 669.783C509.84 671.815 512.652 672.322 513.217 674.546C512.739 674.01 512.268 673.474 511.79 672.945ZM517.723 679.611C517.601 679.471 517.473 679.332 517.351 679.192C518.026 679.838 518.794 680.42 519.394 681.125C518.661 680.88 518.224 680.188 517.723 679.611ZM536.035 697.888C535.749 697.678 535.487 697.439 535.237 697.195C536.203 697.527 536.966 697.812 537.129 699.011C536.803 698.598 536.448 698.208 536.035 697.893V697.888ZM544.32 707.145C543.738 707.192 543.161 707.233 542.579 707.279C544.075 703.844 539.452 703.233 538.34 700.758C541.915 701.457 542.224 705.468 544.623 706.924C545.799 707.116 546.422 707.984 547.097 708.764C547.755 710.295 544.139 708.391 544.32 707.145ZM555.732 717.346C555.243 716.339 553.566 716.595 553.059 715.762C554.468 716.42 556.058 716.793 556.512 718.417C556.256 718.056 555.988 717.701 555.732 717.346ZM558.247 720.636C557.601 720.397 557.449 719.698 557.065 719.203C557.682 719.5 558.759 720.1 558.818 720.869C558.631 720.787 558.445 720.711 558.247 720.636ZM561.234 723.116C561.647 723.331 562.2 723.337 562.439 723.797C561.74 723.949 561.333 723.885 561.234 723.116ZM563.714 724.804C564.39 725.247 565.048 725.707 565.321 726.569C564.716 726.045 564.157 725.48 563.714 724.804ZM681.792 818.923C675.155 811.61 665.239 808.798 657.158 802.609C647.667 796.915 640.313 788.111 630.41 783.477C627.504 781.631 625.886 777.532 622.771 775.762C621.094 775.29 620.942 773.194 619.033 773.142C617.268 771.844 616.366 769.433 613.938 768.822C610.771 766.091 605.536 763.855 602.421 760.775C592.168 751.564 578.136 741.794 568.727 729.882C570.59 730.213 570.264 732.409 572.017 732.863C574.055 733.27 574.072 736.082 576.273 736.426C578.387 737.462 578.561 740.764 581.146 741.526C582.288 743.558 585.566 743.576 586.567 746.085C588.983 749.078 592.052 751.005 594.876 753.66C595.743 755.221 597.752 754.865 598.59 756.298C599.411 758.37 601.956 757.98 603.458 759.139C604.849 760.868 606.276 762.627 608.11 763.937C614.526 769.008 621.851 772.589 627.778 777.718C631.801 781.171 636.284 784.95 641.228 787.139C644.098 791.086 647.411 793.893 651.417 796.484C653.897 799.913 658.409 800.309 660.983 803.209C664.313 803.739 665.489 808.175 669.053 808.385C671.329 808.513 671.708 810.626 673.815 811.028C674.415 812.082 675.003 813.392 676.325 813.549C680.302 814.12 682.2 817.875 685.46 819.686C684.22 819.575 682.881 819.476 681.792 818.923ZM689.984 823.04C689.408 822.69 688.849 822.289 688.348 821.823C690.852 822.457 692.93 824.03 695.125 825.38C696.237 826.574 698.508 826.05 698.811 828.233C695.841 826.551 692.89 824.821 689.978 823.04H689.984ZM706.234 832.658C706.467 832.676 706.7 832.705 706.922 832.746C706.595 832.955 706.322 833.043 706.234 832.658ZM712.633 836.687C712.016 836.769 711.69 835.977 711.748 835.278C712.342 835.651 712.936 836.053 713.344 836.658C713.111 836.658 712.878 836.658 712.627 836.687H712.633ZM592.256 557.609C593.892 560.049 594.794 562.966 597.461 564.503C598.503 569.824 604.186 572.287 606.282 576.712C610.491 580.829 614.165 591.099 620.395 596.211C633.053 616.718 650.444 633.55 661.361 655.442C670.328 670.202 680.482 683.92 687.94 698.941C697.239 711.908 706.52 725.02 712.563 740.21C693.833 715.541 678.369 687.71 661.868 662.249C647.079 642.383 632.57 622.069 620.366 599.763C614.567 591.28 608.983 583.775 603.353 574.896C601.653 571.105 595.889 568.893 596.57 565.667C595.114 562.302 591.935 560.043 590.794 556.421C591.231 556.852 591.72 557.242 592.256 557.597V557.609ZM589.566 554.744C589.088 554.145 588.669 553.498 588.267 552.84C589.432 552.765 589.094 554.04 589.566 554.744ZM585.001 548.543C584.506 548.182 584.058 547.961 583.959 547.245C584.302 547.682 584.657 548.113 585.001 548.543ZM578.078 538.028C577.618 537.504 576.896 537.178 576.815 536.421C577.181 536.998 577.659 537.493 578.078 538.028ZM554.678 503.391C559.772 514.902 570.59 523.804 576.291 535.135C567.144 525.004 560.267 513.836 552.908 502.494C553.554 502.622 554.09 503.071 554.672 503.391H554.678ZM550.323 498.774C549.706 497.9 549.088 497.033 548.454 496.171C548.786 496.643 550.096 498.279 550.323 498.774ZM543.819 382.198C543.679 382.303 543.511 382.373 543.336 382.443C543.179 381.103 544.18 380.044 544.96 379.275C544.57 380.183 544.89 381.651 543.819 382.204V382.198ZM551.359 371.194C550.957 374.32 548.751 376.975 546.107 378.215C547.336 376.271 549.438 374.734 549.484 372.242C549.578 371.106 551.65 371.223 551.4 369.831C550.981 367.805 552.815 367.712 554.23 367.101C553.263 368.457 552.314 369.825 551.359 371.188V371.194ZM720.668 137.704C718.921 138.671 718.124 140.074 718.246 142.1C718.281 142.659 717.786 142.904 717.291 143.09C716.703 144.54 715.393 145.501 714.689 146.828C714.665 148.051 712.872 148.208 713.163 149.646C711.824 150.816 710.59 151.934 710.386 153.832C707.836 155.492 707.451 158.816 704.686 160.115C703.632 160.93 704.47 162.799 702.834 163.201C702.374 163.387 701.932 163.736 701.821 164.167C701.332 167.195 697.646 168.289 697.81 171.41C695.16 172.266 694.531 173.995 694.392 176.621C688.465 182.851 685.239 191.463 679.061 197.71C678.072 203.759 672.977 206.845 670.211 212.312C669.88 216.371 669.082 215.363 666.898 217.663C667.411 221.407 663.399 222.059 662.578 224.621C662.666 225.745 661.99 226.443 661.402 227.177C660.866 228.045 659.725 225.867 659.353 226.636C658.747 229.553 656.75 231.695 655.789 234.333C655.929 236.668 653.21 236.86 652.948 239.026C649.466 241.046 649.711 246.03 645.932 248.074C645.396 248.871 645.082 249.756 644.878 250.723C643.987 251.113 643.015 251.567 642.934 252.673C642.823 254.612 640.15 254.758 640.115 256.848C639.388 258.874 636.273 259.171 635.824 261.611C635.679 261.989 634.765 261.89 634.736 262.449C634.45 265.739 631.382 267.2 629.437 269.43C628.238 272.038 625.507 273.948 624.314 276.627C624.349 278.315 622.107 278.309 621.886 279.945C621.798 283.38 618.223 284.359 616.669 286.961C615.19 289.389 610.415 294.81 609.857 297.692C608.931 300.929 604.564 302.152 604.209 305.436C600.354 308.166 598.13 312.667 595.906 316.504C592.78 318.041 590.456 320.254 588.855 323.194C585.711 325.535 584.471 329.319 582.218 332.044C580.785 332.498 581.496 334.355 580.133 335.013C578.765 336.673 576.366 337.645 576.162 340.085C576.005 342.21 573.932 342.361 573.531 344.288C570.055 345.144 571.248 349.732 567.761 350.81C566.101 353.191 563.225 354.745 562.387 357.709C562.049 358.943 560.914 359.555 560.256 360.678C559.662 361.098 559.901 362.262 558.94 362.524C557.991 362.786 558.34 363.962 557.834 364.55C557.315 365.505 555.93 365.4 555.144 365.924C556 365.092 555.825 364.562 555.126 363.491C555.569 363.491 557.438 363.904 556.588 362.926C556.186 362.414 555.54 361.738 556.401 361.674C558.008 361.546 559.301 361.278 559.01 359.491C558.789 357.802 561.77 358.029 560.733 356.003C560.547 355.462 560.477 354.984 561.1 354.786C563.458 354.297 562.346 351.898 563.831 350.81C564.815 350.227 565.473 349.348 565.374 348.096C565.991 344.836 571.982 343.107 571.772 340.236C573.513 339.136 574.678 337.575 576.401 336.422C578.107 333.395 579.423 329.878 582.165 327.305C582.666 323.916 586.748 322.914 587.394 319.578C587.487 315.887 592.593 315.916 592.017 311.986C591.994 311.439 592.488 311.223 592.977 311.06C593.682 309.494 594.87 308.865 595.621 307.532C595.667 306.344 597.449 306.262 597.181 304.848C598.497 303.782 599.755 302.682 599.953 300.848C602.485 299.316 602.887 296.067 605.624 294.897C606.677 294.129 605.851 292.283 607.475 291.939C607.929 291.776 608.372 291.445 608.482 291.031C608.884 288.196 612.366 287.34 612.436 284.539C612.884 283.089 616.052 283.357 615.592 280.982C615.283 278.263 617.606 277.576 618.881 275.736C623.126 270.105 625.798 263.678 630.928 258.781C631.615 252.58 638.34 249.29 639.72 243.218C639.149 240.784 642.049 240.9 642.631 239.392C642.025 235.753 646.037 235.09 646.77 232.621C649.204 225.302 647.784 236.551 652.535 224.831C653.705 223.311 652.872 220.819 655.283 220.277C655.661 217.954 658.596 217.512 658.351 214.845C659.632 211.911 662.928 210.374 663.487 207.055C665.513 206.583 665.047 204.359 666.741 203.532C669.647 198.77 673.722 195.148 677.256 190.799C677.408 190.432 678.316 190.578 678.363 190.03C678.753 186.793 681.821 185.541 683.824 183.428C686.642 179.119 690.933 175.754 692.552 170.781C699.149 166.071 702.607 157.856 707.347 151.783C708.296 151.032 709.862 150.793 709.553 149.017C711.608 147.317 714.083 145.664 714.892 142.834C715.387 141.396 717.087 141.163 717.146 139.457C717.25 139.003 717.402 138.351 717.809 138.304C719.888 137.693 720.569 135.9 722.537 135.242C722.229 136.284 721.658 137.146 720.662 137.699L720.668 137.704ZM781.727 45.3498C781.832 45.1577 781.937 44.9597 782.042 44.7676C782.019 45.018 781.99 45.2392 781.727 45.3498Z" fill="#D5FF00"/>
</svg>
